<mxfile host="app.diagrams.net" agent="Mozilla/5.0 (Windows NT 10.0; Win64; x64) AppleWebKit/537.36 (KHTML, like Gecko) Chrome/136.0.0.0 Safari/537.36 Edg/136.0.0.0" version="27.0.2" pages="2">
  <diagram name="Page-1" id="RRJVYvJVIJEdy5Si4vsN">
    <mxGraphModel dx="2196" dy="1465" grid="1" gridSize="10" guides="1" tooltips="1" connect="1" arrows="1" fold="1" page="0" pageScale="1" pageWidth="850" pageHeight="1100" math="0" shadow="0">
      <root>
        <mxCell id="0" />
        <mxCell id="1" parent="0" />
        <mxCell id="3UmPSXNFokLNy28Eq0_R-1" value="Động cơ Bước (Stepper Motors)" style="ellipse;whiteSpace=wrap;html=1;fontSize=18;fontStyle=1;fillColor=#dae8fc;strokeColor=#6c8ebf;" parent="1" vertex="1">
          <mxGeometry x="494.5" y="370" width="180" height="100" as="geometry" />
        </mxCell>
        <mxCell id="3UmPSXNFokLNy28Eq0_R-2" value="Giới thiệu (Introduction)" style="rounded=1;whiteSpace=wrap;html=1;fontSize=14;fillColor=#f8cecc;strokeColor=#b85450;" parent="1" vertex="1">
          <mxGeometry x="220" y="-10" width="160" height="70" as="geometry" />
        </mxCell>
        <mxCell id="3UmPSXNFokLNy28Eq0_R-3" value="" style="edgeStyle=orthogonalEdgeStyle;rounded=0;orthogonalLoop=1;jettySize=auto;html=1;entryX=0.5;entryY=1;entryDx=0;entryDy=0;" parent="1" source="3UmPSXNFokLNy28Eq0_R-1" target="3UmPSXNFokLNy28Eq0_R-2" edge="1">
          <mxGeometry relative="1" as="geometry" />
        </mxCell>
        <mxCell id="3UmPSXNFokLNy28Eq0_R-4" value="Định nghĩa" style="whiteSpace=wrap;html=1;fontSize=12;align=left;verticalAlign=top;spacingLeft=4;fillColor=#fff2cc;strokeColor=#d6b656;" parent="1" vertex="1">
          <mxGeometry x="-140" y="-110" width="160" height="30" as="geometry" />
        </mxCell>
        <mxCell id="3UmPSXNFokLNy28Eq0_R-5" value="" style="edgeStyle=orthogonalEdgeStyle;rounded=0;orthogonalLoop=1;jettySize=auto;html=1;" parent="1" source="3UmPSXNFokLNy28Eq0_R-2" target="3UmPSXNFokLNy28Eq0_R-4" edge="1">
          <mxGeometry relative="1" as="geometry" />
        </mxCell>
        <mxCell id="3UmPSXNFokLNy28Eq0_R-6" value="Nguyên lý hoạt động" style="whiteSpace=wrap;html=1;fontSize=12;align=left;verticalAlign=top;spacingLeft=4;fillColor=#fff2cc;strokeColor=#d6b656;" parent="1" vertex="1">
          <mxGeometry x="-110" y="150" width="160" height="30" as="geometry" />
        </mxCell>
        <mxCell id="3UmPSXNFokLNy28Eq0_R-7" value="" style="edgeStyle=orthogonalEdgeStyle;rounded=0;orthogonalLoop=1;jettySize=auto;html=1;" parent="1" source="3UmPSXNFokLNy28Eq0_R-2" target="3UmPSXNFokLNy28Eq0_R-6" edge="1">
          <mxGeometry relative="1" as="geometry" />
        </mxCell>
        <mxCell id="3UmPSXNFokLNy28Eq0_R-8" value="Quan hệ điều khiển (Chuỗi xung, Tần số, Số lượng)" style="whiteSpace=wrap;html=1;fontSize=12;align=left;verticalAlign=top;spacingLeft=4;fillColor=#fff2cc;strokeColor=#d6b656;" parent="1" vertex="1">
          <mxGeometry x="370" y="-140" width="160" height="50" as="geometry" />
        </mxCell>
        <mxCell id="3UmPSXNFokLNy28Eq0_R-9" value="" style="edgeStyle=orthogonalEdgeStyle;rounded=0;orthogonalLoop=1;jettySize=auto;html=1;" parent="1" source="3UmPSXNFokLNy28Eq0_R-2" target="3UmPSXNFokLNy28Eq0_R-8" edge="1">
          <mxGeometry relative="1" as="geometry" />
        </mxCell>
        <mxCell id="3UmPSXNFokLNy28Eq0_R-10" value="Lợi ích" style="whiteSpace=wrap;html=1;fontSize=12;align=left;verticalAlign=top;spacingLeft=4;fillColor=#fff2cc;strokeColor=#d6b656;" parent="1" vertex="1">
          <mxGeometry x="50" y="-140" width="160" height="30" as="geometry" />
        </mxCell>
        <mxCell id="3UmPSXNFokLNy28Eq0_R-11" value="" style="edgeStyle=orthogonalEdgeStyle;rounded=0;orthogonalLoop=1;jettySize=auto;html=1;" parent="1" source="3UmPSXNFokLNy28Eq0_R-2" target="3UmPSXNFokLNy28Eq0_R-10" edge="1">
          <mxGeometry relative="1" as="geometry" />
        </mxCell>
        <mxCell id="3UmPSXNFokLNy28Eq0_R-12" value="Ứng dụng" style="whiteSpace=wrap;html=1;fontSize=12;align=left;verticalAlign=top;spacingLeft=4;fillColor=#fff2cc;strokeColor=#d6b656;" parent="1" vertex="1">
          <mxGeometry x="10" y="250" width="160" height="30" as="geometry" />
        </mxCell>
        <mxCell id="3UmPSXNFokLNy28Eq0_R-13" value="" style="edgeStyle=orthogonalEdgeStyle;rounded=0;orthogonalLoop=1;jettySize=auto;html=1;" parent="1" source="3UmPSXNFokLNy28Eq0_R-2" target="3UmPSXNFokLNy28Eq0_R-12" edge="1">
          <mxGeometry relative="1" as="geometry" />
        </mxCell>
        <mxCell id="3UmPSXNFokLNy28Eq0_R-14" value="Phân loại (Classification)" style="rounded=1;whiteSpace=wrap;html=1;fontSize=14;fillColor=#f8cecc;strokeColor=#b85450;" parent="1" vertex="1">
          <mxGeometry x="494.5" y="180" width="180" height="70" as="geometry" />
        </mxCell>
        <mxCell id="3UmPSXNFokLNy28Eq0_R-15" value="" style="edgeStyle=orthogonalEdgeStyle;rounded=0;orthogonalLoop=1;jettySize=auto;html=1;entryX=0.5;entryY=1;entryDx=0;entryDy=0;" parent="1" source="3UmPSXNFokLNy28Eq0_R-1" target="3UmPSXNFokLNy28Eq0_R-14" edge="1">
          <mxGeometry relative="1" as="geometry" />
        </mxCell>
        <mxCell id="3UmPSXNFokLNy28Eq0_R-16" value="Theo Loại Rotor" style="whiteSpace=wrap;html=1;fontSize=12;align=left;verticalAlign=top;spacingLeft=4;fillColor=#fff2cc;strokeColor=#d6b656;" parent="1" vertex="1">
          <mxGeometry x="344.5" y="100" width="140" height="30" as="geometry" />
        </mxCell>
        <mxCell id="3UmPSXNFokLNy28Eq0_R-17" value="" style="edgeStyle=orthogonalEdgeStyle;rounded=0;orthogonalLoop=1;jettySize=auto;html=1;" parent="1" source="3UmPSXNFokLNy28Eq0_R-14" target="3UmPSXNFokLNy28Eq0_R-16" edge="1">
          <mxGeometry relative="1" as="geometry" />
        </mxCell>
        <mxCell id="3UmPSXNFokLNy28Eq0_R-18" value="Theo Đấu dây Pha" style="whiteSpace=wrap;html=1;fontSize=12;align=left;verticalAlign=top;spacingLeft=4;fillColor=#fff2cc;strokeColor=#d6b656;" parent="1" vertex="1">
          <mxGeometry x="514.5" y="20" width="140" height="30" as="geometry" />
        </mxCell>
        <mxCell id="3UmPSXNFokLNy28Eq0_R-19" value="" style="edgeStyle=orthogonalEdgeStyle;rounded=0;orthogonalLoop=1;jettySize=auto;html=1;" parent="1" source="3UmPSXNFokLNy28Eq0_R-14" target="3UmPSXNFokLNy28Eq0_R-18" edge="1">
          <mxGeometry relative="1" as="geometry" />
        </mxCell>
        <mxCell id="3UmPSXNFokLNy28Eq0_R-20" value="Theo Chế độ Điều khiển" style="whiteSpace=wrap;html=1;fontSize=12;align=left;verticalAlign=top;spacingLeft=4;fillColor=#fff2cc;strokeColor=#d6b656;" parent="1" vertex="1">
          <mxGeometry x="664.5" y="100" width="140" height="30" as="geometry" />
        </mxCell>
        <mxCell id="3UmPSXNFokLNy28Eq0_R-21" value="" style="edgeStyle=orthogonalEdgeStyle;rounded=0;orthogonalLoop=1;jettySize=auto;html=1;" parent="1" source="3UmPSXNFokLNy28Eq0_R-14" target="3UmPSXNFokLNy28Eq0_R-20" edge="1">
          <mxGeometry relative="1" as="geometry" />
        </mxCell>
        <mxCell id="3UmPSXNFokLNy28Eq0_R-22" value="PM Stepper Motor" style="rounded=1;whiteSpace=wrap;html=1;fontSize=14;fillColor=#e1d5e7;strokeColor=#9673a6;" parent="1" vertex="1">
          <mxGeometry x="750" y="170" width="160" height="70" as="geometry" />
        </mxCell>
        <mxCell id="3UmPSXNFokLNy28Eq0_R-23" value="" style="edgeStyle=orthogonalEdgeStyle;rounded=0;orthogonalLoop=1;jettySize=auto;html=1;entryX=0.5;entryY=1;entryDx=0;entryDy=0;" parent="1" source="3UmPSXNFokLNy28Eq0_R-1" target="3UmPSXNFokLNy28Eq0_R-22" edge="1">
          <mxGeometry relative="1" as="geometry" />
        </mxCell>
        <mxCell id="3UmPSXNFokLNy28Eq0_R-24" value="Cấu tạo PM" style="whiteSpace=wrap;html=1;fontSize=12;align=left;verticalAlign=top;spacingLeft=4;fillColor=#d5e8d4;strokeColor=#82b366;" parent="1" vertex="1">
          <mxGeometry x="1020" y="-180" width="120" height="30" as="geometry" />
        </mxCell>
        <mxCell id="3UmPSXNFokLNy28Eq0_R-25" value="" style="edgeStyle=orthogonalEdgeStyle;rounded=0;orthogonalLoop=1;jettySize=auto;html=1;" parent="1" source="3UmPSXNFokLNy28Eq0_R-22" target="3UmPSXNFokLNy28Eq0_R-24" edge="1">
          <mxGeometry relative="1" as="geometry" />
        </mxCell>
        <mxCell id="3UmPSXNFokLNy28Eq0_R-26" value="Chế độ Wave Drive (PM)" style="whiteSpace=wrap;html=1;fontSize=12;align=left;verticalAlign=top;spacingLeft=4;fillColor=#d5e8d4;strokeColor=#82b366;" parent="1" vertex="1">
          <mxGeometry x="810" y="-120" width="120" height="30" as="geometry" />
        </mxCell>
        <mxCell id="3UmPSXNFokLNy28Eq0_R-27" value="" style="edgeStyle=orthogonalEdgeStyle;rounded=0;orthogonalLoop=1;jettySize=auto;html=1;" parent="1" source="3UmPSXNFokLNy28Eq0_R-22" target="3UmPSXNFokLNy28Eq0_R-26" edge="1">
          <mxGeometry relative="1" as="geometry" />
        </mxCell>
        <mxCell id="3UmPSXNFokLNy28Eq0_R-28" value="Chế độ Full Step (PM)" style="whiteSpace=wrap;html=1;fontSize=12;align=left;verticalAlign=top;spacingLeft=4;fillColor=#d5e8d4;strokeColor=#82b366;" parent="1" vertex="1">
          <mxGeometry x="920" y="-10" width="120" height="30" as="geometry" />
        </mxCell>
        <mxCell id="3UmPSXNFokLNy28Eq0_R-29" value="" style="edgeStyle=orthogonalEdgeStyle;rounded=0;orthogonalLoop=1;jettySize=auto;html=1;" parent="1" source="3UmPSXNFokLNy28Eq0_R-22" target="3UmPSXNFokLNy28Eq0_R-28" edge="1">
          <mxGeometry relative="1" as="geometry" />
        </mxCell>
        <mxCell id="3UmPSXNFokLNy28Eq0_R-30" value="Chế độ Half Step (PM)" style="whiteSpace=wrap;html=1;fontSize=12;align=left;verticalAlign=top;spacingLeft=4;fillColor=#d5e8d4;strokeColor=#82b366;" parent="1" vertex="1">
          <mxGeometry x="1130" y="230" width="120" height="30" as="geometry" />
        </mxCell>
        <mxCell id="3UmPSXNFokLNy28Eq0_R-31" value="" style="edgeStyle=orthogonalEdgeStyle;rounded=0;orthogonalLoop=1;jettySize=auto;html=1;" parent="1" source="3UmPSXNFokLNy28Eq0_R-22" target="3UmPSXNFokLNy28Eq0_R-30" edge="1">
          <mxGeometry relative="1" as="geometry" />
        </mxCell>
        <mxCell id="3UmPSXNFokLNy28Eq0_R-32" value="VR Stepper Motor" style="rounded=1;whiteSpace=wrap;html=1;fontSize=14;fillColor=#e1d5e7;strokeColor=#9673a6;" parent="1" vertex="1">
          <mxGeometry x="280" y="800" width="160" height="70" as="geometry" />
        </mxCell>
        <mxCell id="3UmPSXNFokLNy28Eq0_R-33" value="" style="edgeStyle=orthogonalEdgeStyle;rounded=0;orthogonalLoop=1;jettySize=auto;html=1;entryX=0.5;entryY=0;entryDx=0;entryDy=0;" parent="1" source="3UmPSXNFokLNy28Eq0_R-1" target="3UmPSXNFokLNy28Eq0_R-32" edge="1">
          <mxGeometry relative="1" as="geometry" />
        </mxCell>
        <mxCell id="3UmPSXNFokLNy28Eq0_R-34" value="Cấu tạo VR" style="whiteSpace=wrap;html=1;fontSize=12;align=left;verticalAlign=top;spacingLeft=4;fillColor=#d5e8d4;strokeColor=#82b366;" parent="1" vertex="1">
          <mxGeometry x="285" y="1040" width="150" height="30" as="geometry" />
        </mxCell>
        <mxCell id="3UmPSXNFokLNy28Eq0_R-35" value="" style="edgeStyle=orthogonalEdgeStyle;rounded=0;orthogonalLoop=1;jettySize=auto;html=1;" parent="1" source="3UmPSXNFokLNy28Eq0_R-32" target="3UmPSXNFokLNy28Eq0_R-34" edge="1">
          <mxGeometry relative="1" as="geometry" />
        </mxCell>
        <mxCell id="3UmPSXNFokLNy28Eq0_R-36" value="Tính toán Góc bước VR" style="whiteSpace=wrap;html=1;fontSize=12;align=left;verticalAlign=top;spacingLeft=4;fillColor=#d5e8d4;strokeColor=#82b366;" parent="1" vertex="1">
          <mxGeometry x="100" y="1010" width="150" height="30" as="geometry" />
        </mxCell>
        <mxCell id="3UmPSXNFokLNy28Eq0_R-37" value="" style="edgeStyle=orthogonalEdgeStyle;rounded=0;orthogonalLoop=1;jettySize=auto;html=1;" parent="1" source="3UmPSXNFokLNy28Eq0_R-32" target="3UmPSXNFokLNy28Eq0_R-36" edge="1">
          <mxGeometry relative="1" as="geometry" />
        </mxCell>
        <mxCell id="3UmPSXNFokLNy28Eq0_R-38" value="Chế độ Microstepping VR" style="whiteSpace=wrap;html=1;fontSize=12;align=left;verticalAlign=top;spacingLeft=4;fillColor=#d5e8d4;strokeColor=#82b366;" parent="1" vertex="1">
          <mxGeometry x="-90" y="920" width="150" height="30" as="geometry" />
        </mxCell>
        <mxCell id="3UmPSXNFokLNy28Eq0_R-39" value="" style="edgeStyle=orthogonalEdgeStyle;rounded=0;orthogonalLoop=1;jettySize=auto;html=1;" parent="1" source="3UmPSXNFokLNy28Eq0_R-32" target="3UmPSXNFokLNy28Eq0_R-38" edge="1">
          <mxGeometry relative="1" as="geometry" />
        </mxCell>
        <mxCell id="3UmPSXNFokLNy28Eq0_R-40" value="Hybrid Stepper Motor" style="rounded=1;whiteSpace=wrap;html=1;fontSize=14;fillColor=#e1d5e7;strokeColor=#9673a6;" parent="1" vertex="1">
          <mxGeometry x="770" y="780" width="180" height="70" as="geometry" />
        </mxCell>
        <mxCell id="3UmPSXNFokLNy28Eq0_R-41" value="" style="edgeStyle=orthogonalEdgeStyle;rounded=0;orthogonalLoop=1;jettySize=auto;html=1;entryX=0.5;entryY=0;entryDx=0;entryDy=0;" parent="1" source="3UmPSXNFokLNy28Eq0_R-1" target="3UmPSXNFokLNy28Eq0_R-40" edge="1">
          <mxGeometry relative="1" as="geometry" />
        </mxCell>
        <mxCell id="3UmPSXNFokLNy28Eq0_R-42" value="Cấu tạo Hybrid" style="whiteSpace=wrap;html=1;fontSize=12;align=left;verticalAlign=top;spacingLeft=4;fillColor=#d5e8d4;strokeColor=#82b366;" parent="1" vertex="1">
          <mxGeometry x="600" y="1010" width="140" height="30" as="geometry" />
        </mxCell>
        <mxCell id="3UmPSXNFokLNy28Eq0_R-43" value="" style="edgeStyle=orthogonalEdgeStyle;rounded=0;orthogonalLoop=1;jettySize=auto;html=1;" parent="1" source="3UmPSXNFokLNy28Eq0_R-40" target="3UmPSXNFokLNy28Eq0_R-42" edge="1">
          <mxGeometry relative="1" as="geometry" />
        </mxCell>
        <mxCell id="3UmPSXNFokLNy28Eq0_R-44" value="Đặc điểm Hybrid" style="whiteSpace=wrap;html=1;fontSize=12;align=left;verticalAlign=top;spacingLeft=4;fillColor=#d5e8d4;strokeColor=#82b366;" parent="1" vertex="1">
          <mxGeometry x="990" y="1010" width="140" height="30" as="geometry" />
        </mxCell>
        <mxCell id="3UmPSXNFokLNy28Eq0_R-45" value="" style="edgeStyle=orthogonalEdgeStyle;rounded=0;orthogonalLoop=1;jettySize=auto;html=1;" parent="1" source="3UmPSXNFokLNy28Eq0_R-40" target="3UmPSXNFokLNy28Eq0_R-44" edge="1">
          <mxGeometry relative="1" as="geometry" />
        </mxCell>
        <mxCell id="3UmPSXNFokLNy28Eq0_R-46" value="Đấu dây Pha (Phase Wiring)" style="rounded=1;whiteSpace=wrap;html=1;fontSize=14;fillColor=#dae8fc;strokeColor=#6c8ebf;" parent="1" vertex="1">
          <mxGeometry x="1110" y="350" width="160" height="70" as="geometry" />
        </mxCell>
        <mxCell id="3UmPSXNFokLNy28Eq0_R-47" value="" style="edgeStyle=orthogonalEdgeStyle;rounded=0;orthogonalLoop=1;jettySize=auto;html=1;" parent="1" source="3UmPSXNFokLNy28Eq0_R-1" target="3UmPSXNFokLNy28Eq0_R-46" edge="1">
          <mxGeometry relative="1" as="geometry" />
        </mxCell>
        <mxCell id="3UmPSXNFokLNy28Eq0_R-48" value="Bipolar" style="whiteSpace=wrap;html=1;fontSize=12;align=left;verticalAlign=top;spacingLeft=4;fillColor=#f5f5f5;strokeColor=#666666;" parent="1" vertex="1">
          <mxGeometry x="1360" y="240" width="100" height="30" as="geometry" />
        </mxCell>
        <mxCell id="3UmPSXNFokLNy28Eq0_R-49" value="" style="edgeStyle=orthogonalEdgeStyle;rounded=0;orthogonalLoop=1;jettySize=auto;html=1;" parent="1" source="3UmPSXNFokLNy28Eq0_R-46" target="3UmPSXNFokLNy28Eq0_R-48" edge="1">
          <mxGeometry relative="1" as="geometry" />
        </mxCell>
        <mxCell id="3UmPSXNFokLNy28Eq0_R-50" value="Unipolar" style="whiteSpace=wrap;html=1;fontSize=12;align=left;verticalAlign=top;spacingLeft=4;fillColor=#f5f5f5;strokeColor=#666666;" parent="1" vertex="1">
          <mxGeometry x="1470" y="520" width="100" height="30" as="geometry" />
        </mxCell>
        <mxCell id="3UmPSXNFokLNy28Eq0_R-51" value="" style="edgeStyle=orthogonalEdgeStyle;rounded=0;orthogonalLoop=1;jettySize=auto;html=1;" parent="1" source="3UmPSXNFokLNy28Eq0_R-46" target="3UmPSXNFokLNy28Eq0_R-50" edge="1">
          <mxGeometry relative="1" as="geometry" />
        </mxCell>
        <mxCell id="3UmPSXNFokLNy28Eq0_R-52" value="Mạch Điều khiển (Driver Circuits)" style="rounded=1;whiteSpace=wrap;html=1;fontSize=14;fillColor=#dae8fc;strokeColor=#6c8ebf;" parent="1" vertex="1">
          <mxGeometry x="680" y="530" width="160" height="70" as="geometry" />
        </mxCell>
        <mxCell id="3UmPSXNFokLNy28Eq0_R-53" value="" style="edgeStyle=orthogonalEdgeStyle;rounded=0;orthogonalLoop=1;jettySize=auto;html=1;" parent="1" source="3UmPSXNFokLNy28Eq0_R-1" target="3UmPSXNFokLNy28Eq0_R-52" edge="1">
          <mxGeometry relative="1" as="geometry" />
        </mxCell>
        <mxCell id="3UmPSXNFokLNy28Eq0_R-54" value="Hệ thống cơ bản" style="whiteSpace=wrap;html=1;fontSize=12;align=left;verticalAlign=top;spacingLeft=4;fillColor=#f5f5f5;strokeColor=#666666;" parent="1" vertex="1">
          <mxGeometry x="920" y="420" width="120" height="30" as="geometry" />
        </mxCell>
        <mxCell id="3UmPSXNFokLNy28Eq0_R-55" value="" style="edgeStyle=orthogonalEdgeStyle;rounded=0;orthogonalLoop=1;jettySize=auto;html=1;" parent="1" source="3UmPSXNFokLNy28Eq0_R-52" target="3UmPSXNFokLNy28Eq0_R-54" edge="1">
          <mxGeometry relative="1" as="geometry" />
        </mxCell>
        <mxCell id="3UmPSXNFokLNy28Eq0_R-56" value="Driver Bipolar" style="whiteSpace=wrap;html=1;fontSize=12;align=left;verticalAlign=top;spacingLeft=4;fillColor=#f5f5f5;strokeColor=#666666;" parent="1" vertex="1">
          <mxGeometry x="1110" y="470" width="120" height="30" as="geometry" />
        </mxCell>
        <mxCell id="3UmPSXNFokLNy28Eq0_R-57" value="" style="edgeStyle=orthogonalEdgeStyle;rounded=0;orthogonalLoop=1;jettySize=auto;html=1;" parent="1" source="3UmPSXNFokLNy28Eq0_R-52" target="3UmPSXNFokLNy28Eq0_R-56" edge="1">
          <mxGeometry relative="1" as="geometry" />
        </mxCell>
        <mxCell id="3UmPSXNFokLNy28Eq0_R-58" value="Driver Unipolar" style="whiteSpace=wrap;html=1;fontSize=12;align=left;verticalAlign=top;spacingLeft=4;fillColor=#f5f5f5;strokeColor=#666666;" parent="1" vertex="1">
          <mxGeometry x="1040" y="600" width="120" height="30" as="geometry" />
        </mxCell>
        <mxCell id="3UmPSXNFokLNy28Eq0_R-59" value="" style="edgeStyle=orthogonalEdgeStyle;rounded=0;orthogonalLoop=1;jettySize=auto;html=1;" parent="1" source="3UmPSXNFokLNy28Eq0_R-52" target="3UmPSXNFokLNy28Eq0_R-58" edge="1">
          <mxGeometry relative="1" as="geometry" />
        </mxCell>
        <mxCell id="3UmPSXNFokLNy28Eq0_R-60" value="So sánh PM, VR, Hybrid" style="rounded=1;whiteSpace=wrap;html=1;fontSize=14;fillColor=#b1ddf0;strokeColor=#10739e;" parent="1" vertex="1">
          <mxGeometry x="504.5" y="640" width="160" height="70" as="geometry" />
        </mxCell>
        <mxCell id="3UmPSXNFokLNy28Eq0_R-61" value="" style="edgeStyle=orthogonalEdgeStyle;rounded=0;orthogonalLoop=1;jettySize=auto;html=1;entryX=0.5;entryY=0;entryDx=0;entryDy=0;" parent="1" source="3UmPSXNFokLNy28Eq0_R-1" target="3UmPSXNFokLNy28Eq0_R-60" edge="1">
          <mxGeometry relative="1" as="geometry" />
        </mxCell>
        <mxCell id="3UmPSXNFokLNy28Eq0_R-62" value="Cấu tạo Rotor" style="whiteSpace=wrap;html=1;fontSize=12;align=left;verticalAlign=top;spacingLeft=4;fillColor=#f5f5f5;strokeColor=#666666;" parent="1" vertex="1">
          <mxGeometry x="1210" y="560" width="120" height="30" as="geometry" />
        </mxCell>
        <mxCell id="3UmPSXNFokLNy28Eq0_R-63" value="" style="edgeStyle=orthogonalEdgeStyle;rounded=0;orthogonalLoop=1;jettySize=auto;html=1;" parent="1" source="3UmPSXNFokLNy28Eq0_R-60" target="3UmPSXNFokLNy28Eq0_R-62" edge="1">
          <mxGeometry relative="1" as="geometry" />
        </mxCell>
        <mxCell id="3UmPSXNFokLNy28Eq0_R-64" value="Moment xoắn/hãm" style="whiteSpace=wrap;html=1;fontSize=12;align=left;verticalAlign=top;spacingLeft=4;fillColor=#f5f5f5;strokeColor=#666666;" parent="1" vertex="1">
          <mxGeometry x="1110" y="760" width="120" height="30" as="geometry" />
        </mxCell>
        <mxCell id="3UmPSXNFokLNy28Eq0_R-65" value="" style="edgeStyle=orthogonalEdgeStyle;rounded=0;orthogonalLoop=1;jettySize=auto;html=1;" parent="1" source="3UmPSXNFokLNy28Eq0_R-60" target="3UmPSXNFokLNy28Eq0_R-64" edge="1">
          <mxGeometry relative="1" as="geometry" />
        </mxCell>
        <mxCell id="3UmPSXNFokLNy28Eq0_R-66" value="Độ phức tạp/Giá" style="whiteSpace=wrap;html=1;fontSize=12;align=left;verticalAlign=top;spacingLeft=4;fillColor=#f5f5f5;strokeColor=#666666;" parent="1" vertex="1">
          <mxGeometry x="950" y="730" width="120" height="30" as="geometry" />
        </mxCell>
        <mxCell id="3UmPSXNFokLNy28Eq0_R-67" value="" style="edgeStyle=orthogonalEdgeStyle;rounded=0;orthogonalLoop=1;jettySize=auto;html=1;" parent="1" source="3UmPSXNFokLNy28Eq0_R-60" target="3UmPSXNFokLNy28Eq0_R-66" edge="1">
          <mxGeometry relative="1" as="geometry" />
        </mxCell>
        <mxCell id="3UmPSXNFokLNy28Eq0_R-68" value="Ứng dụng (Applications)" style="rounded=1;whiteSpace=wrap;html=1;fontSize=14;fillColor=#b1ddf0;strokeColor=#10739e;" parent="1" vertex="1">
          <mxGeometry x="30" y="480" width="160" height="70" as="geometry" />
        </mxCell>
        <mxCell id="3UmPSXNFokLNy28Eq0_R-69" value="" style="edgeStyle=orthogonalEdgeStyle;rounded=0;orthogonalLoop=1;jettySize=auto;html=1;" parent="1" source="3UmPSXNFokLNy28Eq0_R-1" target="3UmPSXNFokLNy28Eq0_R-68" edge="1">
          <mxGeometry relative="1" as="geometry" />
        </mxCell>
        <mxCell id="3UmPSXNFokLNy28Eq0_R-70" value="Máy in 3D, CNC" style="whiteSpace=wrap;html=1;fontSize=12;align=left;verticalAlign=top;spacingLeft=4;fillColor=#f5f5f5;strokeColor=#666666;" parent="1" vertex="1">
          <mxGeometry x="-240" y="650" width="150" height="30" as="geometry" />
        </mxCell>
        <mxCell id="3UmPSXNFokLNy28Eq0_R-71" value="" style="edgeStyle=orthogonalEdgeStyle;rounded=0;orthogonalLoop=1;jettySize=auto;html=1;" parent="1" source="3UmPSXNFokLNy28Eq0_R-68" target="3UmPSXNFokLNy28Eq0_R-70" edge="1">
          <mxGeometry relative="1" as="geometry" />
        </mxCell>
        <mxCell id="3UmPSXNFokLNy28Eq0_R-72" value="Robot" style="whiteSpace=wrap;html=1;fontSize=12;align=left;verticalAlign=top;spacingLeft=4;fillColor=#f5f5f5;strokeColor=#666666;" parent="1" vertex="1">
          <mxGeometry x="-290" y="430" width="150" height="30" as="geometry" />
        </mxCell>
        <mxCell id="3UmPSXNFokLNy28Eq0_R-73" value="" style="edgeStyle=orthogonalEdgeStyle;rounded=0;orthogonalLoop=1;jettySize=auto;html=1;" parent="1" source="3UmPSXNFokLNy28Eq0_R-68" target="3UmPSXNFokLNy28Eq0_R-72" edge="1">
          <mxGeometry relative="1" as="geometry" />
        </mxCell>
        <mxCell id="3UmPSXNFokLNy28Eq0_R-74" value="Thiết bị y tế" style="whiteSpace=wrap;html=1;fontSize=12;align=left;verticalAlign=top;spacingLeft=4;fillColor=#f5f5f5;strokeColor=#666666;" parent="1" vertex="1">
          <mxGeometry x="-200" y="310" width="150" height="30" as="geometry" />
        </mxCell>
        <mxCell id="3UmPSXNFokLNy28Eq0_R-75" value="" style="edgeStyle=orthogonalEdgeStyle;rounded=0;orthogonalLoop=1;jettySize=auto;html=1;" parent="1" source="3UmPSXNFokLNy28Eq0_R-68" target="3UmPSXNFokLNy28Eq0_R-74" edge="1">
          <mxGeometry relative="1" as="geometry" />
        </mxCell>
      </root>
    </mxGraphModel>
  </diagram>
  <diagram id="YaTN5BMvG4dEYD7bKWz7" name="Page-2">
    <mxGraphModel dx="8340" dy="2665" grid="1" gridSize="10" guides="1" tooltips="1" connect="1" arrows="1" fold="1" page="0" pageScale="1" pageWidth="850" pageHeight="1100" math="0" shadow="0">
      <root>
        <mxCell id="0" />
        <mxCell id="1" parent="0" />
        <mxCell id="TjDZukwJZePtEUUgZBgw-1" value="&#xa;  &#xa;    &#xa;    &#xa;    &#xa;      &#xa;    &#xa;    &#xa;      &#xa;    &#xa;    &#xa;      &#xa;    &#xa;    &#xa;      &#xa;    &#xa;    &#xa;      &#xa;    &#xa;    &#xa;      &#xa;    &#xa;    &#xa;      &#xa;    &#xa;    &#xa;      &#xa;    &#xa;    &#xa;      &#xa;    &#xa;    &#xa;      &#xa;    &#xa;    &#xa;      &#xa;    &#xa;    &#xa;      &#xa;    &#xa;    &#xa;      &#xa;    &#xa;    &#xa;      &#xa;    &#xa;    &#xa;      &#xa;    &#xa;    &#xa;      &#xa;    &#xa;    &#xa;      &#xa;    &#xa;    &#xa;      &#xa;    &#xa;    &#xa;      &#xa;    &#xa;    &#xa;      &#xa;    &#xa;    &#xa;      &#xa;    &#xa;    &#xa;      &#xa;    &#xa;    &#xa;      &#xa;    &#xa;    &#xa;      &#xa;    &#xa;    &#xa;      &#xa;    &#xa;    &#xa;      &#xa;    &#xa;    &#xa;      &#xa;    &#xa;    &#xa;      &#xa;    &#xa;    &#xa;      &#xa;    &#xa;    &#xa;      &#xa;    &#xa;    &#xa;      &#xa;    &#xa;    &#xa;      &#xa;    &#xa;    &#xa;      &#xa;    &#xa;    &#xa;      &#xa;    &#xa;    &#xa;      &#xa;    &#xa;    &#xa;      &#xa;    &#xa;    &#xa;      &#xa;    &#xa;    &#xa;      &#xa;    &#xa;    &#xa;      &#xa;    &#xa;    &#xa;      &#xa;    &#xa;    &#xa;      &#xa;    &#xa;    &#xa;      &#xa;    &#xa;    &#xa;      &#xa;    &#xa;    &#xa;      &#xa;    &#xa;    &#xa;      &#xa;    &#xa;    &#xa;      &#xa;    &#xa;    &#xa;      &#xa;    &#xa;    &#xa;      &#xa;    &#xa;    &#xa;      &#xa;    &#xa;    &#xa;      &#xa;    &#xa;    &#xa;      &#xa;    &#xa;    &#xa;      &#xa;    &#xa;    &#xa;      &#xa;    &#xa;    &#xa;      &#xa;    &#xa;    &#xa;      &#xa;    &#xa;    &#xa;      &#xa;    &#xa;    &#xa;      &#xa;    &#xa;    &#xa;      &#xa;    &#xa;    &#xa;      &#xa;    &#xa;    &#xa;      &#xa;    &#xa;    &#xa;      &#xa;    &#xa;    &#xa;      &#xa;    &#xa;    &#xa;      &#xa;    &#xa;    &#xa;      &#xa;    &#xa;    &#xa;      &#xa;    &#xa;    &#xa;      &#xa;    &#xa;    &#xa;      &#xa;    &#xa;    &#xa;      &#xa;    &#xa;    &#xa;      &#xa;    &#xa;    &#xa;      &#xa;    &#xa;    &#xa;      &#xa;    &#xa;    &#xa;      &#xa;    &#xa;    &#xa;      &#xa;    &#xa;    &#xa;      &#xa;    &#xa;    &#xa;      &#xa;    &#xa;    &#xa;      &#xa;    &#xa;    &#xa;      &#xa;    &#xa;    &#xa;      &#xa;    &#xa;    &#xa;      &#xa;    &#xa;    &#xa;      &#xa;    &#xa;    &#xa;      &#xa;    &#xa;    &#xa;      &#xa;    &#xa;    &#xa;      &#xa;    &#xa;    &#xa;      &#xa;    &#xa;    &#xa;      &#xa;    &#xa;    &#xa;      &#xa;    &#xa;    &#xa;      &#xa;    &#xa;    &#xa;      &#xa;    &#xa;    &#xa;      &#xa;    &#xa;    &#xa;      &#xa;    &#xa;    &#xa;      &#xa;    &#xa;    &#xa;      &#xa;    &#xa;    &#xa;      &#xa;    &#xa;    &#xa;      &#xa;    &#xa;    &#xa;      &#xa;    &#xa;    &#xa;      &#xa;    &#xa;    &#xa;      &#xa;    &#xa;    &#xa;      &#xa;    &#xa;    &#xa;      &#xa;    &#xa;    &#xa;      &#xa;    &#xa;    &#xa;      &#xa;    &#xa;    &#xa;      &#xa;    &#xa;    &#xa;      &#xa;    &#xa;    &#xa;      &#xa;    &#xa;    &#xa;      &#xa;    &#xa;    &#xa;      &#xa;    &#xa;    &#xa;      &#xa;    &#xa;    &#xa;      &#xa;    &#xa;    &#xa;      &#xa;    &#xa;    &#xa;      &#xa;    &#xa;    &#xa;      &#xa;    &#xa;    &#xa;      &#xa;    &#xa;    &#xa;      &#xa;    &#xa;    &#xa;      &#xa;    &#xa;    &#xa;      &#xa;    &#xa;    &#xa;      &#xa;    &#xa;    &#xa;      &#xa;    &#xa;    &#xa;      &#xa;    &#xa;    &#xa;      &#xa;    &#xa;    &#xa;      &#xa;    &#xa;    &#xa;      &#xa;    &#xa;    &#xa;      &#xa;    &#xa;    &#xa;      &#xa;    &#xa;    &#xa;      &#xa;    &#xa;    &#xa;      &#xa;    &#xa;    &#xa;      &#xa;    &#xa;    &#xa;      &#xa;    &#xa;    &#xa;      &#xa;    &#xa;    &#xa;      &#xa;    &#xa;    &#xa;      &#xa;    &#xa;    &#xa;      &#xa;    &#xa;    &#xa;      &#xa;    &#xa;    &#xa;      &#xa;    &#xa;    &#xa;      &#xa;    &#xa;    &#xa;      &#xa;    &#xa;    &#xa;      &#xa;    &#xa;    &#xa;      &#xa;    &#xa;    &#xa;      &#xa;    &#xa;    &#xa;      &#xa;    &#xa;    &#xa;      &#xa;    &#xa;    &#xa;      &#xa;    &#xa;    &#xa;      &#xa;    &#xa;    &#xa;      &#xa;    &#xa;    &#xa;      &#xa;    &#xa;    &#xa;      &#xa;    &#xa;    &#xa;      &#xa;    &#xa;    &#xa;      &#xa;    &#xa;    &#xa;      &#xa;    &#xa;    &#xa;      &#xa;    &#xa;    &#xa;      &#xa;    &#xa;    &#xa;      &#xa;    &#xa;    &#xa;      &#xa;    &#xa;    &#xa;      &#xa;    &#xa;    &#xa;      &#xa;    &#xa;    &#xa;      &#xa;    &#xa;    &#xa;      &#xa;    &#xa;    &#xa;      &#xa;    &#xa;    &#xa;      &#xa;    &#xa;    &#xa;      &#xa;    &#xa;    &#xa;      &#xa;    &#xa;    &#xa;      &#xa;    &#xa;    &#xa;      &#xa;    &#xa;    &#xa;      &#xa;    &#xa;    &#xa;      &#xa;    &#xa;    &#xa;      &#xa;    &#xa;    &#xa;      &#xa;    &#xa;    &#xa;      &#xa;    &#xa;    &#xa;      &#xa;    &#xa;    &#xa;      &#xa;    &#xa;    &#xa;      &#xa;    &#xa;    &#xa;      &#xa;    &#xa;  &#xa;" style="text;whiteSpace=wrap;html=1;verticalAlign=middle;" vertex="1" parent="1">
          <mxGeometry width="30" height="7480" as="geometry" />
        </mxCell>
        <mxCell id="TjDZukwJZePtEUUgZBgw-3" value="Chapter 5: Stepper Motors (Instructor: Le Hoa Nguyen, Ph.D.)" style="ellipse;whiteSpace=wrap;html=1;fontSize=20;fontStyle=1;fillColor=#dae8fc;strokeColor=#6c8ebf;verticalAlign=middle;" vertex="1" parent="1">
          <mxGeometry x="1070" y="750" width="260" height="140" as="geometry" />
        </mxCell>
        <mxCell id="TjDZukwJZePtEUUgZBgw-4" value="5.1. Introduction" style="rounded=1;whiteSpace=wrap;html=1;fontSize=16;fillColor=#f8cecc;strokeColor=#b85450;verticalAlign=middle;" vertex="1" parent="1">
          <mxGeometry x="-3100" y="600" width="180" height="80" as="geometry" />
        </mxCell>
        <mxCell id="TjDZukwJZePtEUUgZBgw-5" style="edgeStyle=orthogonalEdgeStyle;rounded=0;orthogonalLoop=1;jettySize=auto;html=1;verticalAlign=middle;" edge="1" parent="1" source="TjDZukwJZePtEUUgZBgw-3" target="TjDZukwJZePtEUUgZBgw-4">
          <mxGeometry relative="1" as="geometry" />
        </mxCell>
        <mxCell id="TjDZukwJZePtEUUgZBgw-6" value="Definition: Electromechanical device, converts electrical pulses to discrete mechanical movements." style="whiteSpace=wrap;html=1;fontSize=12;align=left;verticalAlign=middle;spacingLeft=4;fillColor=#fff2cc;strokeColor=#d6b656;" vertex="1" parent="1">
          <mxGeometry x="-840" y="-10" width="220" height="60" as="geometry" />
        </mxCell>
        <mxCell id="TjDZukwJZePtEUUgZBgw-7" style="edgeStyle=orthogonalEdgeStyle;rounded=0;orthogonalLoop=1;jettySize=auto;html=1;verticalAlign=middle;" edge="1" parent="1" source="TjDZukwJZePtEUUgZBgw-4" target="TjDZukwJZePtEUUgZBgw-6">
          <mxGeometry relative="1" as="geometry" />
        </mxCell>
        <mxCell id="TjDZukwJZePtEUUgZBgw-8" value="Operation: Shaft rotates in discrete step increments via electrical command pulses in proper sequence." style="whiteSpace=wrap;html=1;fontSize=12;align=left;verticalAlign=middle;spacingLeft=4;fillColor=#fff2cc;strokeColor=#d6b656;" vertex="1" parent="1">
          <mxGeometry x="-5490" y="-80" width="220" height="70" as="geometry" />
        </mxCell>
        <mxCell id="TjDZukwJZePtEUUgZBgw-9" style="edgeStyle=orthogonalEdgeStyle;rounded=0;orthogonalLoop=1;jettySize=auto;html=1;verticalAlign=middle;" edge="1" parent="1" source="TjDZukwJZePtEUUgZBgw-4" target="TjDZukwJZePtEUUgZBgw-8">
          <mxGeometry relative="1" as="geometry" />
        </mxCell>
        <mxCell id="TjDZukwJZePtEUUgZBgw-10" value="Control Relationships:" style="whiteSpace=wrap;html=1;fontSize=12;fontStyle=1;align=left;verticalAlign=middle;spacingLeft=4;fillColor=#fff2cc;strokeColor=#d6b656;" vertex="1" parent="1">
          <mxGeometry x="-4340" y="270" width="220" height="30" as="geometry" />
        </mxCell>
        <mxCell id="TjDZukwJZePtEUUgZBgw-11" style="edgeStyle=orthogonalEdgeStyle;rounded=0;orthogonalLoop=1;jettySize=auto;html=1;verticalAlign=middle;" edge="1" parent="1" source="TjDZukwJZePtEUUgZBgw-4" target="TjDZukwJZePtEUUgZBgw-10">
          <mxGeometry relative="1" as="geometry" />
        </mxCell>
        <mxCell id="TjDZukwJZePtEUUgZBgw-12" value="Rotation Direction (CW/CCW): by sequence of applied pulses." style="whiteSpace=wrap;html=1;fontSize=11;align=left;verticalAlign=middle;spacingLeft=4;fillColor=#f5f5f5;strokeColor=#666666;" vertex="1" parent="1">
          <mxGeometry x="-4345" y="-80" width="230" height="40" as="geometry" />
        </mxCell>
        <mxCell id="TjDZukwJZePtEUUgZBgw-13" style="edgeStyle=orthogonalEdgeStyle;rounded=0;orthogonalLoop=1;jettySize=auto;html=1;verticalAlign=middle;" edge="1" parent="1" source="TjDZukwJZePtEUUgZBgw-10" target="TjDZukwJZePtEUUgZBgw-12">
          <mxGeometry relative="1" as="geometry" />
        </mxCell>
        <mxCell id="TjDZukwJZePtEUUgZBgw-14" value="Rotation Speed: by frequency of input pulses." style="whiteSpace=wrap;html=1;fontSize=11;align=left;verticalAlign=middle;spacingLeft=4;fillColor=#f5f5f5;strokeColor=#666666;" vertex="1" parent="1">
          <mxGeometry x="-4200" y="-240" width="230" height="30" as="geometry" />
        </mxCell>
        <mxCell id="TjDZukwJZePtEUUgZBgw-15" style="edgeStyle=orthogonalEdgeStyle;rounded=0;orthogonalLoop=1;jettySize=auto;html=1;verticalAlign=middle;" edge="1" parent="1" source="TjDZukwJZePtEUUgZBgw-10" target="TjDZukwJZePtEUUgZBgw-14">
          <mxGeometry relative="1" as="geometry" />
        </mxCell>
        <mxCell id="TjDZukwJZePtEUUgZBgw-16" value="Rotation Length (degree/revolution): by number of applied pulses." style="whiteSpace=wrap;html=1;fontSize=11;align=left;verticalAlign=middle;spacingLeft=4;fillColor=#f5f5f5;strokeColor=#666666;" vertex="1" parent="1">
          <mxGeometry x="-4610" y="50" width="230" height="50" as="geometry" />
        </mxCell>
        <mxCell id="TjDZukwJZePtEUUgZBgw-17" style="edgeStyle=orthogonalEdgeStyle;rounded=0;orthogonalLoop=1;jettySize=auto;html=1;verticalAlign=middle;" edge="1" parent="1" source="TjDZukwJZePtEUUgZBgw-10" target="TjDZukwJZePtEUUgZBgw-16">
          <mxGeometry relative="1" as="geometry" />
        </mxCell>
        <mxCell id="TjDZukwJZePtEUUgZBgw-18" value="Benefits:" style="whiteSpace=wrap;html=1;fontSize=12;fontStyle=1;align=left;verticalAlign=middle;spacingLeft=4;fillColor=#fff2cc;strokeColor=#d6b656;" vertex="1" parent="1">
          <mxGeometry x="-4130" y="1015" width="220" height="30" as="geometry" />
        </mxCell>
        <mxCell id="TjDZukwJZePtEUUgZBgw-19" style="edgeStyle=orthogonalEdgeStyle;rounded=0;orthogonalLoop=1;jettySize=auto;html=1;verticalAlign=middle;" edge="1" parent="1" source="TjDZukwJZePtEUUgZBgw-4" target="TjDZukwJZePtEUUgZBgw-18">
          <mxGeometry relative="1" as="geometry" />
        </mxCell>
        <mxCell id="TjDZukwJZePtEUUgZBgw-20" value="Easy to produce/cheap construction." style="whiteSpace=wrap;html=1;fontSize=11;align=left;verticalAlign=middle;spacingLeft=4;fillColor=#f5f5f5;strokeColor=#666666;" vertex="1" parent="1">
          <mxGeometry x="-4135" y="1470" width="230" height="30" as="geometry" />
        </mxCell>
        <mxCell id="TjDZukwJZePtEUUgZBgw-21" style="edgeStyle=orthogonalEdgeStyle;rounded=0;orthogonalLoop=1;jettySize=auto;html=1;verticalAlign=middle;" edge="1" parent="1" source="TjDZukwJZePtEUUgZBgw-18" target="TjDZukwJZePtEUUgZBgw-20">
          <mxGeometry relative="1" as="geometry" />
        </mxCell>
        <mxCell id="TjDZukwJZePtEUUgZBgw-22" value="Easy control (speed/position) without feedback." style="whiteSpace=wrap;html=1;fontSize=11;align=left;verticalAlign=middle;spacingLeft=4;fillColor=#f5f5f5;strokeColor=#666666;" vertex="1" parent="1">
          <mxGeometry x="-4770" y="1235" width="230" height="40" as="geometry" />
        </mxCell>
        <mxCell id="TjDZukwJZePtEUUgZBgw-23" style="edgeStyle=orthogonalEdgeStyle;rounded=0;orthogonalLoop=1;jettySize=auto;html=1;verticalAlign=middle;" edge="1" parent="1" source="TjDZukwJZePtEUUgZBgw-18" target="TjDZukwJZePtEUUgZBgw-22">
          <mxGeometry relative="1" as="geometry" />
        </mxCell>
        <mxCell id="TjDZukwJZePtEUUgZBgw-24" value="Full torque at standstill." style="whiteSpace=wrap;html=1;fontSize=11;align=left;verticalAlign=middle;spacingLeft=4;fillColor=#f5f5f5;strokeColor=#666666;" vertex="1" parent="1">
          <mxGeometry x="-4460" y="1240" width="230" height="30" as="geometry" />
        </mxCell>
        <mxCell id="TjDZukwJZePtEUUgZBgw-25" style="edgeStyle=orthogonalEdgeStyle;rounded=0;orthogonalLoop=1;jettySize=auto;html=1;verticalAlign=middle;" edge="1" parent="1" source="TjDZukwJZePtEUUgZBgw-18" target="TjDZukwJZePtEUUgZBgw-24">
          <mxGeometry relative="1" as="geometry" />
        </mxCell>
        <mxCell id="TjDZukwJZePtEUUgZBgw-26" value="Excellent response (start/stop/reverse)." style="whiteSpace=wrap;html=1;fontSize=11;align=left;verticalAlign=middle;spacingLeft=4;fillColor=#f5f5f5;strokeColor=#666666;" vertex="1" parent="1">
          <mxGeometry x="-3910" y="1227.5" width="230" height="40" as="geometry" />
        </mxCell>
        <mxCell id="TjDZukwJZePtEUUgZBgw-27" style="edgeStyle=orthogonalEdgeStyle;rounded=0;orthogonalLoop=1;jettySize=auto;html=1;verticalAlign=middle;" edge="1" parent="1" source="TjDZukwJZePtEUUgZBgw-18" target="TjDZukwJZePtEUUgZBgw-26">
          <mxGeometry relative="1" as="geometry" />
        </mxCell>
        <mxCell id="TjDZukwJZePtEUUgZBgw-28" value="Applications:" style="whiteSpace=wrap;html=1;fontSize=12;fontStyle=1;align=left;verticalAlign=middle;spacingLeft=4;fillColor=#fff2cc;strokeColor=#d6b656;" vertex="1" parent="1">
          <mxGeometry x="-3500" y="385" width="220" height="30" as="geometry" />
        </mxCell>
        <mxCell id="TjDZukwJZePtEUUgZBgw-29" style="edgeStyle=orthogonalEdgeStyle;rounded=0;orthogonalLoop=1;jettySize=auto;html=1;verticalAlign=middle;" edge="1" parent="1" source="TjDZukwJZePtEUUgZBgw-4" target="TjDZukwJZePtEUUgZBgw-28">
          <mxGeometry relative="1" as="geometry" />
        </mxCell>
        <mxCell id="TjDZukwJZePtEUUgZBgw-30" value="Precise movements &amp; positioning profiles (3D printers, CNC)." style="whiteSpace=wrap;html=1;fontSize=11;align=left;verticalAlign=middle;spacingLeft=4;fillColor=#f5f5f5;strokeColor=#666666;" vertex="1" parent="1">
          <mxGeometry x="-3505" y="-30" width="230" height="50" as="geometry" />
        </mxCell>
        <mxCell id="TjDZukwJZePtEUUgZBgw-31" style="edgeStyle=orthogonalEdgeStyle;rounded=0;orthogonalLoop=1;jettySize=auto;html=1;verticalAlign=middle;" edge="1" parent="1" source="TjDZukwJZePtEUUgZBgw-28" target="TjDZukwJZePtEUUgZBgw-30">
          <mxGeometry relative="1" as="geometry" />
        </mxCell>
        <mxCell id="TjDZukwJZePtEUUgZBgw-32" value="Automation, machinery adjustments." style="whiteSpace=wrap;html=1;fontSize=11;align=left;verticalAlign=middle;spacingLeft=4;fillColor=#f5f5f5;strokeColor=#666666;" vertex="1" parent="1">
          <mxGeometry x="-3290" y="-220" width="230" height="30" as="geometry" />
        </mxCell>
        <mxCell id="TjDZukwJZePtEUUgZBgw-33" style="edgeStyle=orthogonalEdgeStyle;rounded=0;orthogonalLoop=1;jettySize=auto;html=1;verticalAlign=middle;" edge="1" parent="1" source="TjDZukwJZePtEUUgZBgw-28" target="TjDZukwJZePtEUUgZBgw-32">
          <mxGeometry relative="1" as="geometry" />
        </mxCell>
        <mxCell id="TjDZukwJZePtEUUgZBgw-34" value="Handling systems, robotics." style="whiteSpace=wrap;html=1;fontSize=11;align=left;verticalAlign=middle;spacingLeft=4;fillColor=#f5f5f5;strokeColor=#666666;" vertex="1" parent="1">
          <mxGeometry x="-3100" y="-345" width="230" height="30" as="geometry" />
        </mxCell>
        <mxCell id="TjDZukwJZePtEUUgZBgw-35" style="edgeStyle=orthogonalEdgeStyle;rounded=0;orthogonalLoop=1;jettySize=auto;html=1;verticalAlign=middle;" edge="1" parent="1" source="TjDZukwJZePtEUUgZBgw-28" target="TjDZukwJZePtEUUgZBgw-34">
          <mxGeometry relative="1" as="geometry" />
        </mxCell>
        <mxCell id="TjDZukwJZePtEUUgZBgw-36" value="Textile/printing machines, paper converting." style="whiteSpace=wrap;html=1;fontSize=11;align=left;verticalAlign=middle;spacingLeft=4;fillColor=#f5f5f5;strokeColor=#666666;" vertex="1" parent="1">
          <mxGeometry x="-3660" y="60" width="230" height="40" as="geometry" />
        </mxCell>
        <mxCell id="TjDZukwJZePtEUUgZBgw-37" style="edgeStyle=orthogonalEdgeStyle;rounded=0;orthogonalLoop=1;jettySize=auto;html=1;verticalAlign=middle;" edge="1" parent="1" source="TjDZukwJZePtEUUgZBgw-28" target="TjDZukwJZePtEUUgZBgw-36">
          <mxGeometry relative="1" as="geometry" />
        </mxCell>
        <mxCell id="TjDZukwJZePtEUUgZBgw-38" value="Medical equipments." style="whiteSpace=wrap;html=1;fontSize=11;align=left;verticalAlign=middle;spacingLeft=4;fillColor=#f5f5f5;strokeColor=#666666;" vertex="1" parent="1">
          <mxGeometry x="-3350" y="160" width="230" height="30" as="geometry" />
        </mxCell>
        <mxCell id="TjDZukwJZePtEUUgZBgw-39" style="edgeStyle=orthogonalEdgeStyle;rounded=0;orthogonalLoop=1;jettySize=auto;html=1;verticalAlign=middle;" edge="1" parent="1" source="TjDZukwJZePtEUUgZBgw-28" target="TjDZukwJZePtEUUgZBgw-38">
          <mxGeometry relative="1" as="geometry" />
        </mxCell>
        <mxCell id="TjDZukwJZePtEUUgZBgw-40" value="Classification of Stepper Motors" style="whiteSpace=wrap;html=1;fontSize=12;fontStyle=1;align=left;verticalAlign=middle;spacingLeft=4;fillColor=#fff2cc;strokeColor=#d6b656;" vertex="1" parent="1">
          <mxGeometry x="-2080" y="340" width="220" height="40" as="geometry" />
        </mxCell>
        <mxCell id="TjDZukwJZePtEUUgZBgw-41" style="edgeStyle=orthogonalEdgeStyle;rounded=0;orthogonalLoop=1;jettySize=auto;html=1;verticalAlign=middle;" edge="1" parent="1" source="TjDZukwJZePtEUUgZBgw-4" target="TjDZukwJZePtEUUgZBgw-40">
          <mxGeometry relative="1" as="geometry" />
        </mxCell>
        <mxCell id="TjDZukwJZePtEUUgZBgw-42" value="Rotor Type:" style="whiteSpace=wrap;html=1;fontSize=11;fontStyle=1;align=left;verticalAlign=middle;spacingLeft=4;fillColor=#f5f5f5;strokeColor=#666666;" vertex="1" parent="1">
          <mxGeometry x="-1360" y="-310" width="230" height="30" as="geometry" />
        </mxCell>
        <mxCell id="TjDZukwJZePtEUUgZBgw-43" style="edgeStyle=orthogonalEdgeStyle;rounded=0;orthogonalLoop=1;jettySize=auto;html=1;verticalAlign=middle;" edge="1" parent="1" source="TjDZukwJZePtEUUgZBgw-40" target="TjDZukwJZePtEUUgZBgw-42">
          <mxGeometry relative="1" as="geometry" />
        </mxCell>
        <mxCell id="TjDZukwJZePtEUUgZBgw-44" value="Variable-Reluctance (VR)" style="whiteSpace=wrap;html=1;fontSize=10;align=left;verticalAlign=middle;spacingLeft=4;" vertex="1" parent="1">
          <mxGeometry x="-1270" y="-550" width="150" height="25" as="geometry" />
        </mxCell>
        <mxCell id="TjDZukwJZePtEUUgZBgw-45" style="edgeStyle=orthogonalEdgeStyle;rounded=0;orthogonalLoop=1;jettySize=auto;html=1;verticalAlign=middle;" edge="1" parent="1" source="TjDZukwJZePtEUUgZBgw-42" target="TjDZukwJZePtEUUgZBgw-44">
          <mxGeometry relative="1" as="geometry" />
        </mxCell>
        <mxCell id="TjDZukwJZePtEUUgZBgw-46" value="Permanent Magnet (PM)" style="whiteSpace=wrap;html=1;fontSize=10;align=left;verticalAlign=middle;spacingLeft=4;" vertex="1" parent="1">
          <mxGeometry x="-1060" y="-607.5" width="150" height="25" as="geometry" />
        </mxCell>
        <mxCell id="TjDZukwJZePtEUUgZBgw-47" style="edgeStyle=orthogonalEdgeStyle;rounded=0;orthogonalLoop=1;jettySize=auto;html=1;verticalAlign=middle;" edge="1" parent="1" source="TjDZukwJZePtEUUgZBgw-42" target="TjDZukwJZePtEUUgZBgw-46">
          <mxGeometry relative="1" as="geometry" />
        </mxCell>
        <mxCell id="TjDZukwJZePtEUUgZBgw-48" value="Hybrid (HB)" style="whiteSpace=wrap;html=1;fontSize=10;align=left;verticalAlign=middle;spacingLeft=4;" vertex="1" parent="1">
          <mxGeometry x="-880" y="-397.5" width="150" height="25" as="geometry" />
        </mxCell>
        <mxCell id="TjDZukwJZePtEUUgZBgw-49" style="edgeStyle=orthogonalEdgeStyle;rounded=0;orthogonalLoop=1;jettySize=auto;html=1;verticalAlign=middle;" edge="1" parent="1" source="TjDZukwJZePtEUUgZBgw-42" target="TjDZukwJZePtEUUgZBgw-48">
          <mxGeometry relative="1" as="geometry" />
        </mxCell>
        <mxCell id="TjDZukwJZePtEUUgZBgw-50" value="Phase Wiring:" style="whiteSpace=wrap;html=1;fontSize=11;fontStyle=1;align=left;verticalAlign=middle;spacingLeft=4;fillColor=#f5f5f5;strokeColor=#666666;" vertex="1" parent="1">
          <mxGeometry x="-1590" y="-130" width="230" height="30" as="geometry" />
        </mxCell>
        <mxCell id="TjDZukwJZePtEUUgZBgw-51" style="edgeStyle=orthogonalEdgeStyle;rounded=0;orthogonalLoop=1;jettySize=auto;html=1;verticalAlign=middle;" edge="1" parent="1" source="TjDZukwJZePtEUUgZBgw-40" target="TjDZukwJZePtEUUgZBgw-50">
          <mxGeometry relative="1" as="geometry" />
        </mxCell>
        <mxCell id="TjDZukwJZePtEUUgZBgw-52" value="Unipolar" style="whiteSpace=wrap;html=1;fontSize=10;align=left;verticalAlign=middle;spacingLeft=4;" vertex="1" parent="1">
          <mxGeometry x="-1740" y="-310" width="150" height="25" as="geometry" />
        </mxCell>
        <mxCell id="TjDZukwJZePtEUUgZBgw-53" style="edgeStyle=orthogonalEdgeStyle;rounded=0;orthogonalLoop=1;jettySize=auto;html=1;verticalAlign=middle;" edge="1" parent="1" source="TjDZukwJZePtEUUgZBgw-50" target="TjDZukwJZePtEUUgZBgw-52">
          <mxGeometry relative="1" as="geometry" />
        </mxCell>
        <mxCell id="TjDZukwJZePtEUUgZBgw-54" value="Bipolar" style="whiteSpace=wrap;html=1;fontSize=10;align=left;verticalAlign=middle;spacingLeft=4;" vertex="1" parent="1">
          <mxGeometry x="-1560" y="-507.5" width="150" height="25" as="geometry" />
        </mxCell>
        <mxCell id="TjDZukwJZePtEUUgZBgw-55" style="edgeStyle=orthogonalEdgeStyle;rounded=0;orthogonalLoop=1;jettySize=auto;html=1;verticalAlign=middle;" edge="1" parent="1" source="TjDZukwJZePtEUUgZBgw-50" target="TjDZukwJZePtEUUgZBgw-54">
          <mxGeometry relative="1" as="geometry" />
        </mxCell>
        <mxCell id="TjDZukwJZePtEUUgZBgw-56" value="Control Mode:" style="whiteSpace=wrap;html=1;fontSize=11;fontStyle=1;align=left;verticalAlign=middle;spacingLeft=4;fillColor=#f5f5f5;strokeColor=#666666;" vertex="1" parent="1">
          <mxGeometry x="-2450" y="-155" width="230" height="30" as="geometry" />
        </mxCell>
        <mxCell id="TjDZukwJZePtEUUgZBgw-57" style="edgeStyle=orthogonalEdgeStyle;rounded=0;orthogonalLoop=1;jettySize=auto;html=1;verticalAlign=middle;" edge="1" parent="1" source="TjDZukwJZePtEUUgZBgw-40" target="TjDZukwJZePtEUUgZBgw-56">
          <mxGeometry relative="1" as="geometry" />
        </mxCell>
        <mxCell id="TjDZukwJZePtEUUgZBgw-58" value="Wave Drive" style="whiteSpace=wrap;html=1;fontSize=10;align=left;verticalAlign=middle;spacingLeft=4;" vertex="1" parent="1">
          <mxGeometry x="-2210" y="-610" width="150" height="25" as="geometry" />
        </mxCell>
        <mxCell id="TjDZukwJZePtEUUgZBgw-59" style="edgeStyle=orthogonalEdgeStyle;rounded=0;orthogonalLoop=1;jettySize=auto;html=1;verticalAlign=middle;" edge="1" parent="1" source="TjDZukwJZePtEUUgZBgw-56" target="TjDZukwJZePtEUUgZBgw-58">
          <mxGeometry relative="1" as="geometry" />
        </mxCell>
        <mxCell id="TjDZukwJZePtEUUgZBgw-60" value="Full Step Drive" style="whiteSpace=wrap;html=1;fontSize=10;align=left;verticalAlign=middle;spacingLeft=4;" vertex="1" parent="1">
          <mxGeometry x="-2650" y="-535" width="150" height="25" as="geometry" />
        </mxCell>
        <mxCell id="TjDZukwJZePtEUUgZBgw-61" style="edgeStyle=orthogonalEdgeStyle;rounded=0;orthogonalLoop=1;jettySize=auto;html=1;verticalAlign=middle;" edge="1" parent="1" source="TjDZukwJZePtEUUgZBgw-56" target="TjDZukwJZePtEUUgZBgw-60">
          <mxGeometry relative="1" as="geometry" />
        </mxCell>
        <mxCell id="TjDZukwJZePtEUUgZBgw-62" value="Half Step Drive" style="whiteSpace=wrap;html=1;fontSize=10;align=left;verticalAlign=middle;spacingLeft=4;" vertex="1" parent="1">
          <mxGeometry x="-2410" y="-785" width="150" height="25" as="geometry" />
        </mxCell>
        <mxCell id="TjDZukwJZePtEUUgZBgw-63" style="edgeStyle=orthogonalEdgeStyle;rounded=0;orthogonalLoop=1;jettySize=auto;html=1;verticalAlign=middle;" edge="1" parent="1" source="TjDZukwJZePtEUUgZBgw-56" target="TjDZukwJZePtEUUgZBgw-62">
          <mxGeometry relative="1" as="geometry" />
        </mxCell>
        <mxCell id="TjDZukwJZePtEUUgZBgw-64" value="Microstep Drive" style="whiteSpace=wrap;html=1;fontSize=10;align=left;verticalAlign=middle;spacingLeft=4;" vertex="1" parent="1">
          <mxGeometry x="-2020" y="-345" width="150" height="25" as="geometry" />
        </mxCell>
        <mxCell id="TjDZukwJZePtEUUgZBgw-65" style="edgeStyle=orthogonalEdgeStyle;rounded=0;orthogonalLoop=1;jettySize=auto;html=1;verticalAlign=middle;" edge="1" parent="1" source="TjDZukwJZePtEUUgZBgw-56" target="TjDZukwJZePtEUUgZBgw-64">
          <mxGeometry relative="1" as="geometry" />
        </mxCell>
        <mxCell id="TjDZukwJZePtEUUgZBgw-66" value="Number of stack of teeth (rotor segment):" style="whiteSpace=wrap;html=1;fontSize=11;fontStyle=1;align=left;verticalAlign=middle;spacingLeft=4;fillColor=#f5f5f5;strokeColor=#666666;" vertex="1" parent="1">
          <mxGeometry x="-2950" y="-1010" width="230" height="40" as="geometry" />
        </mxCell>
        <mxCell id="TjDZukwJZePtEUUgZBgw-67" style="edgeStyle=orthogonalEdgeStyle;rounded=0;orthogonalLoop=1;jettySize=auto;html=1;verticalAlign=middle;" edge="1" parent="1" source="TjDZukwJZePtEUUgZBgw-40" target="TjDZukwJZePtEUUgZBgw-66">
          <mxGeometry relative="1" as="geometry" />
        </mxCell>
        <mxCell id="TjDZukwJZePtEUUgZBgw-68" value="Single-stack" style="whiteSpace=wrap;html=1;fontSize=10;align=left;verticalAlign=middle;spacingLeft=4;" vertex="1" parent="1">
          <mxGeometry x="-2620" y="-1100" width="150" height="25" as="geometry" />
        </mxCell>
        <mxCell id="TjDZukwJZePtEUUgZBgw-69" style="edgeStyle=orthogonalEdgeStyle;rounded=0;orthogonalLoop=1;jettySize=auto;html=1;verticalAlign=middle;" edge="1" parent="1" source="TjDZukwJZePtEUUgZBgw-66" target="TjDZukwJZePtEUUgZBgw-68">
          <mxGeometry relative="1" as="geometry" />
        </mxCell>
        <mxCell id="TjDZukwJZePtEUUgZBgw-70" value="Multiple-stack" style="whiteSpace=wrap;html=1;fontSize=10;align=left;verticalAlign=middle;spacingLeft=4;" vertex="1" parent="1">
          <mxGeometry x="-3100" y="-1110" width="150" height="25" as="geometry" />
        </mxCell>
        <mxCell id="TjDZukwJZePtEUUgZBgw-71" style="edgeStyle=orthogonalEdgeStyle;rounded=0;orthogonalLoop=1;jettySize=auto;html=1;verticalAlign=middle;" edge="1" parent="1" source="TjDZukwJZePtEUUgZBgw-66" target="TjDZukwJZePtEUUgZBgw-70">
          <mxGeometry relative="1" as="geometry" />
        </mxCell>
        <mxCell id="TjDZukwJZePtEUUgZBgw-72" value="5.2. Permanent-Magnet Stepper Motor" style="rounded=1;whiteSpace=wrap;html=1;fontSize=16;fillColor=#e1d5e7;strokeColor=#9673a6;verticalAlign=middle;" vertex="1" parent="1">
          <mxGeometry x="240" y="-80" width="220" height="80" as="geometry" />
        </mxCell>
        <mxCell id="TjDZukwJZePtEUUgZBgw-73" style="edgeStyle=orthogonalEdgeStyle;rounded=0;orthogonalLoop=1;jettySize=auto;html=1;verticalAlign=middle;" edge="1" parent="1" source="TjDZukwJZePtEUUgZBgw-3" target="TjDZukwJZePtEUUgZBgw-72">
          <mxGeometry relative="1" as="geometry" />
        </mxCell>
        <mxCell id="TjDZukwJZePtEUUgZBgw-74" value="Stator: Two sets of windings =&gt; 2 phases, 4 poles." style="whiteSpace=wrap;html=1;fontSize=12;align=left;verticalAlign=middle;spacingLeft=4;fillColor=#d5e8d4;strokeColor=#82b366;" vertex="1" parent="1">
          <mxGeometry x="720" y="-290" width="210" height="50" as="geometry" />
        </mxCell>
        <mxCell id="TjDZukwJZePtEUUgZBgw-75" style="edgeStyle=orthogonalEdgeStyle;rounded=0;orthogonalLoop=1;jettySize=auto;html=1;verticalAlign=middle;" edge="1" parent="1" source="TjDZukwJZePtEUUgZBgw-72" target="TjDZukwJZePtEUUgZBgw-74">
          <mxGeometry relative="1" as="geometry" />
        </mxCell>
        <mxCell id="TjDZukwJZePtEUUgZBgw-76" value="Rotor: Two-pole permanent magnet (or 24-pole)." style="whiteSpace=wrap;html=1;fontSize=12;align=left;verticalAlign=middle;spacingLeft=4;fillColor=#d5e8d4;strokeColor=#82b366;" vertex="1" parent="1">
          <mxGeometry x="-10" y="-220" width="210" height="40" as="geometry" />
        </mxCell>
        <mxCell id="TjDZukwJZePtEUUgZBgw-77" style="edgeStyle=orthogonalEdgeStyle;rounded=0;orthogonalLoop=1;jettySize=auto;html=1;verticalAlign=middle;" edge="1" parent="1" source="TjDZukwJZePtEUUgZBgw-72" target="TjDZukwJZePtEUUgZBgw-76">
          <mxGeometry relative="1" as="geometry" />
        </mxCell>
        <mxCell id="TjDZukwJZePtEUUgZBgw-78" value="Phase States: 1: current in specified direction -1: current in opposite direction 0: no current" style="whiteSpace=wrap;html=1;fontSize=12;align=left;verticalAlign=middle;spacingLeft=4;fillColor=#d5e8d4;strokeColor=#82b366;" vertex="1" parent="1">
          <mxGeometry x="380" y="-440" width="210" height="90" as="geometry" />
        </mxCell>
        <mxCell id="TjDZukwJZePtEUUgZBgw-79" style="edgeStyle=orthogonalEdgeStyle;rounded=0;orthogonalLoop=1;jettySize=auto;html=1;verticalAlign=middle;" edge="1" parent="1" source="TjDZukwJZePtEUUgZBgw-72" target="TjDZukwJZePtEUUgZBgw-78">
          <mxGeometry relative="1" as="geometry" />
        </mxCell>
        <mxCell id="TjDZukwJZePtEUUgZBgw-80" value="Full Step - One Phase Mode (Wave Drive):" style="whiteSpace=wrap;html=1;fontSize=12;fontStyle=1;align=left;verticalAlign=middle;spacingLeft=4;fillColor=#d5e8d4;strokeColor=#82b366;" vertex="1" parent="1">
          <mxGeometry x="-150" y="200" width="210" height="40" as="geometry" />
        </mxCell>
        <mxCell id="TjDZukwJZePtEUUgZBgw-81" style="edgeStyle=orthogonalEdgeStyle;rounded=0;orthogonalLoop=1;jettySize=auto;html=1;verticalAlign=middle;" edge="1" parent="1" source="TjDZukwJZePtEUUgZBgw-72" target="TjDZukwJZePtEUUgZBgw-80">
          <mxGeometry relative="1" as="geometry" />
        </mxCell>
        <mxCell id="TjDZukwJZePtEUUgZBgw-82" value="- Only one winding energized - Generated torque is small - Step angle: 90° (4 steps/rev) - Sequence table (Φ1, Φ2)" style="whiteSpace=wrap;html=1;fontSize=11;align=left;verticalAlign=middle;spacingLeft=4;fillColor=#f5f5f5;strokeColor=#666666;" vertex="1" parent="1">
          <mxGeometry x="-260" y="460" width="220" height="90" as="geometry" />
        </mxCell>
        <mxCell id="TjDZukwJZePtEUUgZBgw-83" style="edgeStyle=orthogonalEdgeStyle;rounded=0;orthogonalLoop=1;jettySize=auto;html=1;verticalAlign=middle;" edge="1" parent="1" source="TjDZukwJZePtEUUgZBgw-80" target="TjDZukwJZePtEUUgZBgw-82">
          <mxGeometry relative="1" as="geometry" />
        </mxCell>
        <mxCell id="TjDZukwJZePtEUUgZBgw-84" value="Full Step - Two Phase Mode:" style="whiteSpace=wrap;html=1;fontSize=12;fontStyle=1;align=left;verticalAlign=middle;spacingLeft=4;fillColor=#d5e8d4;strokeColor=#82b366;" vertex="1" parent="1">
          <mxGeometry x="690" y="180" width="210" height="30" as="geometry" />
        </mxCell>
        <mxCell id="TjDZukwJZePtEUUgZBgw-85" style="edgeStyle=orthogonalEdgeStyle;rounded=0;orthogonalLoop=1;jettySize=auto;html=1;verticalAlign=middle;" edge="1" parent="1" source="TjDZukwJZePtEUUgZBgw-72" target="TjDZukwJZePtEUUgZBgw-84">
          <mxGeometry relative="1" as="geometry" />
        </mxCell>
        <mxCell id="TjDZukwJZePtEUUgZBgw-86" value="- Two windings energized - More torque than wave drive - Step angle: 90° - Sequence table (Φ1, Φ2)" style="whiteSpace=wrap;html=1;fontSize=11;align=left;verticalAlign=middle;spacingLeft=4;fillColor=#f5f5f5;strokeColor=#666666;" vertex="1" parent="1">
          <mxGeometry x="685" y="270" width="220" height="80" as="geometry" />
        </mxCell>
        <mxCell id="TjDZukwJZePtEUUgZBgw-87" style="edgeStyle=orthogonalEdgeStyle;rounded=0;orthogonalLoop=1;jettySize=auto;html=1;verticalAlign=middle;" edge="1" parent="1" source="TjDZukwJZePtEUUgZBgw-84" target="TjDZukwJZePtEUUgZBgw-86">
          <mxGeometry relative="1" as="geometry" />
        </mxCell>
        <mxCell id="TjDZukwJZePtEUUgZBgw-88" value="Half Step Drive Mode:" style="whiteSpace=wrap;html=1;fontSize=12;fontStyle=1;align=left;verticalAlign=middle;spacingLeft=4;fillColor=#d5e8d4;strokeColor=#82b366;" vertex="1" parent="1">
          <mxGeometry x="920" y="-530" width="210" height="30" as="geometry" />
        </mxCell>
        <mxCell id="TjDZukwJZePtEUUgZBgw-89" style="edgeStyle=orthogonalEdgeStyle;rounded=0;orthogonalLoop=1;jettySize=auto;html=1;verticalAlign=middle;" edge="1" parent="1" source="TjDZukwJZePtEUUgZBgw-72" target="TjDZukwJZePtEUUgZBgw-88">
          <mxGeometry relative="1" as="geometry" />
        </mxCell>
        <mxCell id="TjDZukwJZePtEUUgZBgw-90" value="- Combination of wave &amp; full step - Step angle: 45° (8 steps/rev) - Sequence table (Φ1, Φ2) for CW - Q: Waveforms for CW/CCW" style="whiteSpace=wrap;html=1;fontSize=11;align=left;verticalAlign=middle;spacingLeft=4;fillColor=#f5f5f5;strokeColor=#666666;" vertex="1" parent="1">
          <mxGeometry x="780" y="-700" width="220" height="90" as="geometry" />
        </mxCell>
        <mxCell id="TjDZukwJZePtEUUgZBgw-91" style="edgeStyle=orthogonalEdgeStyle;rounded=0;orthogonalLoop=1;jettySize=auto;html=1;verticalAlign=middle;" edge="1" parent="1" source="TjDZukwJZePtEUUgZBgw-88" target="TjDZukwJZePtEUUgZBgw-90">
          <mxGeometry relative="1" as="geometry" />
        </mxCell>
        <mxCell id="TjDZukwJZePtEUUgZBgw-92" value="5.3. Variable-Reluctance Stepper Motor" style="rounded=1;whiteSpace=wrap;html=1;fontSize=16;fillColor=#e1d5e7;strokeColor=#9673a6;verticalAlign=middle;" vertex="1" parent="1">
          <mxGeometry x="2860" y="340" width="240" height="80" as="geometry" />
        </mxCell>
        <mxCell id="TjDZukwJZePtEUUgZBgw-93" style="edgeStyle=orthogonalEdgeStyle;rounded=0;orthogonalLoop=1;jettySize=auto;html=1;verticalAlign=middle;" edge="1" parent="1" source="TjDZukwJZePtEUUgZBgw-3" target="TjDZukwJZePtEUUgZBgw-92">
          <mxGeometry relative="1" as="geometry" />
        </mxCell>
        <mxCell id="TjDZukwJZePtEUUgZBgw-94" value="Stator: Typically 3 windings =&gt; 3 phases, 6 poles." style="whiteSpace=wrap;html=1;fontSize=12;align=left;verticalAlign=middle;spacingLeft=4;fillColor=#d5e8d4;strokeColor=#82b366;" vertex="1" parent="1">
          <mxGeometry x="2860" y="-290" width="210" height="50" as="geometry" />
        </mxCell>
        <mxCell id="TjDZukwJZePtEUUgZBgw-95" style="edgeStyle=orthogonalEdgeStyle;rounded=0;orthogonalLoop=1;jettySize=auto;html=1;verticalAlign=middle;" edge="1" parent="1" source="TjDZukwJZePtEUUgZBgw-92" target="TjDZukwJZePtEUUgZBgw-94">
          <mxGeometry relative="1" as="geometry" />
        </mxCell>
        <mxCell id="TjDZukwJZePtEUUgZBgw-96" value="Rotor: Non-magnetized soft iron bar with teeth (e.g., 4 poles)." style="whiteSpace=wrap;html=1;fontSize=12;align=left;verticalAlign=middle;spacingLeft=4;fillColor=#d5e8d4;strokeColor=#82b366;" vertex="1" parent="1">
          <mxGeometry x="3520" y="70" width="210" height="50" as="geometry" />
        </mxCell>
        <mxCell id="TjDZukwJZePtEUUgZBgw-97" style="edgeStyle=orthogonalEdgeStyle;rounded=0;orthogonalLoop=1;jettySize=auto;html=1;verticalAlign=middle;" edge="1" parent="1" source="TjDZukwJZePtEUUgZBgw-92" target="TjDZukwJZePtEUUgZBgw-96">
          <mxGeometry relative="1" as="geometry" />
        </mxCell>
        <mxCell id="TjDZukwJZePtEUUgZBgw-98" value="Working Principle: Flux lines flow low reluctance path. Stator &amp; rotor align to minimize reluctance." style="whiteSpace=wrap;html=1;fontSize=12;align=left;verticalAlign=middle;spacingLeft=4;fillColor=#d5e8d4;strokeColor=#82b366;" vertex="1" parent="1">
          <mxGeometry x="2570" y="-60" width="210" height="80" as="geometry" />
        </mxCell>
        <mxCell id="TjDZukwJZePtEUUgZBgw-99" style="edgeStyle=orthogonalEdgeStyle;rounded=0;orthogonalLoop=1;jettySize=auto;html=1;verticalAlign=middle;" edge="1" parent="1" source="TjDZukwJZePtEUUgZBgw-92" target="TjDZukwJZePtEUUgZBgw-98">
          <mxGeometry relative="1" as="geometry" />
        </mxCell>
        <mxCell id="TjDZukwJZePtEUUgZBgw-100" value="Step Angle Calculation:" style="whiteSpace=wrap;html=1;fontSize=12;fontStyle=1;align=left;verticalAlign=middle;spacingLeft=4;fillColor=#d5e8d4;strokeColor=#82b366;" vertex="1" parent="1">
          <mxGeometry x="3600" y="430" width="210" height="30" as="geometry" />
        </mxCell>
        <mxCell id="TjDZukwJZePtEUUgZBgw-101" style="edgeStyle=orthogonalEdgeStyle;rounded=0;orthogonalLoop=1;jettySize=auto;html=1;verticalAlign=middle;" edge="1" parent="1" source="TjDZukwJZePtEUUgZBgw-92" target="TjDZukwJZePtEUUgZBgw-100">
          <mxGeometry relative="1" as="geometry" />
        </mxCell>
        <mxCell id="TjDZukwJZePtEUUgZBgw-102" value="Stator Pitch (θs) = 360°/Ns" style="whiteSpace=wrap;html=1;fontSize=11;align=left;verticalAlign=middle;spacingLeft=4;fillColor=#f5f5f5;strokeColor=#666666;" vertex="1" parent="1">
          <mxGeometry x="3760" y="850" width="190" height="30" as="geometry" />
        </mxCell>
        <mxCell id="TjDZukwJZePtEUUgZBgw-103" style="edgeStyle=orthogonalEdgeStyle;rounded=0;orthogonalLoop=1;jettySize=auto;html=1;verticalAlign=middle;" edge="1" parent="1" source="TjDZukwJZePtEUUgZBgw-100" target="TjDZukwJZePtEUUgZBgw-102">
          <mxGeometry relative="1" as="geometry" />
        </mxCell>
        <mxCell id="TjDZukwJZePtEUUgZBgw-104" value="Rotor Pitch (θr) = 360°/Nr" style="whiteSpace=wrap;html=1;fontSize=11;align=left;verticalAlign=middle;spacingLeft=4;fillColor=#f5f5f5;strokeColor=#666666;" vertex="1" parent="1">
          <mxGeometry x="3880" y="490" width="190" height="30" as="geometry" />
        </mxCell>
        <mxCell id="TjDZukwJZePtEUUgZBgw-105" style="edgeStyle=orthogonalEdgeStyle;rounded=0;orthogonalLoop=1;jettySize=auto;html=1;verticalAlign=middle;" edge="1" parent="1" source="TjDZukwJZePtEUUgZBgw-100" target="TjDZukwJZePtEUUgZBgw-104">
          <mxGeometry relative="1" as="geometry" />
        </mxCell>
        <mxCell id="TjDZukwJZePtEUUgZBgw-106" value="Δθ formulas (based on θs, θr, r)" style="whiteSpace=wrap;html=1;fontSize=11;align=left;verticalAlign=middle;spacingLeft=4;fillColor=#f5f5f5;strokeColor=#666666;" vertex="1" parent="1">
          <mxGeometry x="3850" y="310" width="190" height="30" as="geometry" />
        </mxCell>
        <mxCell id="TjDZukwJZePtEUUgZBgw-107" style="edgeStyle=orthogonalEdgeStyle;rounded=0;orthogonalLoop=1;jettySize=auto;html=1;verticalAlign=middle;" edge="1" parent="1" source="TjDZukwJZePtEUUgZBgw-100" target="TjDZukwJZePtEUUgZBgw-106">
          <mxGeometry relative="1" as="geometry" />
        </mxCell>
        <mxCell id="TjDZukwJZePtEUUgZBgw-108" value="Example 6/4 motor: Ns=6, Nr=4 =&gt; Δθ = 30°" style="whiteSpace=wrap;html=1;fontSize=11;align=left;verticalAlign=middle;spacingLeft=4;fillColor=#f5f5f5;strokeColor=#666666;" vertex="1" parent="1">
          <mxGeometry x="4130" y="735" width="190" height="40" as="geometry" />
        </mxCell>
        <mxCell id="TjDZukwJZePtEUUgZBgw-109" style="edgeStyle=orthogonalEdgeStyle;rounded=0;orthogonalLoop=1;jettySize=auto;html=1;verticalAlign=middle;" edge="1" parent="1" source="TjDZukwJZePtEUUgZBgw-100" target="TjDZukwJZePtEUUgZBgw-108">
          <mxGeometry relative="1" as="geometry" />
        </mxCell>
        <mxCell id="TjDZukwJZePtEUUgZBgw-110" value="Half Step Drive Mode (VR):" style="whiteSpace=wrap;html=1;fontSize=12;fontStyle=1;align=left;verticalAlign=middle;spacingLeft=4;fillColor=#d5e8d4;strokeColor=#82b366;" vertex="1" parent="1">
          <mxGeometry x="3120" y="-50" width="210" height="30" as="geometry" />
        </mxCell>
        <mxCell id="TjDZukwJZePtEUUgZBgw-111" style="edgeStyle=orthogonalEdgeStyle;rounded=0;orthogonalLoop=1;jettySize=auto;html=1;verticalAlign=middle;" edge="1" parent="1" source="TjDZukwJZePtEUUgZBgw-92" target="TjDZukwJZePtEUUgZBgw-110">
          <mxGeometry relative="1" as="geometry" />
        </mxCell>
        <mxCell id="TjDZukwJZePtEUUgZBgw-112" value="- Energize 1 phase, then 2 adjacent - Example 6/4 motor: Δθ = 15° - Sequence table (A,B,C)" style="whiteSpace=wrap;html=1;fontSize=11;align=left;verticalAlign=middle;spacingLeft=4;fillColor=#f5f5f5;strokeColor=#666666;" vertex="1" parent="1">
          <mxGeometry x="3090" y="-550" width="190" height="70" as="geometry" />
        </mxCell>
        <mxCell id="TjDZukwJZePtEUUgZBgw-113" style="edgeStyle=orthogonalEdgeStyle;rounded=0;orthogonalLoop=1;jettySize=auto;html=1;verticalAlign=middle;" edge="1" parent="1" source="TjDZukwJZePtEUUgZBgw-110" target="TjDZukwJZePtEUUgZBgw-112">
          <mxGeometry relative="1" as="geometry" />
        </mxCell>
        <mxCell id="TjDZukwJZePtEUUgZBgw-114" value="Example Tasks:" style="whiteSpace=wrap;html=1;fontSize=12;fontStyle=1;align=left;verticalAlign=middle;spacingLeft=4;fillColor=#d5e8d4;strokeColor=#82b366;" vertex="1" parent="1">
          <mxGeometry x="3010" y="580" width="210" height="30" as="geometry" />
        </mxCell>
        <mxCell id="TjDZukwJZePtEUUgZBgw-115" style="edgeStyle=orthogonalEdgeStyle;rounded=0;orthogonalLoop=1;jettySize=auto;html=1;verticalAlign=middle;" edge="1" parent="1" source="TjDZukwJZePtEUUgZBgw-92" target="TjDZukwJZePtEUUgZBgw-114">
          <mxGeometry relative="1" as="geometry" />
        </mxCell>
        <mxCell id="TjDZukwJZePtEUUgZBgw-116" value="a) Determine Δθ for motors (a, b, c)" style="whiteSpace=wrap;html=1;fontSize=11;align=left;verticalAlign=middle;spacingLeft=4;fillColor=#f5f5f5;strokeColor=#666666;" vertex="1" parent="1">
          <mxGeometry x="3280" y="475" width="190" height="30" as="geometry" />
        </mxCell>
        <mxCell id="TjDZukwJZePtEUUgZBgw-117" style="edgeStyle=orthogonalEdgeStyle;rounded=0;orthogonalLoop=1;jettySize=auto;html=1;verticalAlign=middle;" edge="1" parent="1" source="TjDZukwJZePtEUUgZBgw-114" target="TjDZukwJZePtEUUgZBgw-116">
          <mxGeometry relative="1" as="geometry" />
        </mxCell>
        <mxCell id="TjDZukwJZePtEUUgZBgw-118" value="b) Build stepping sequence (CW/CCW)" style="whiteSpace=wrap;html=1;fontSize=11;align=left;verticalAlign=middle;spacingLeft=4;fillColor=#f5f5f5;strokeColor=#666666;" vertex="1" parent="1">
          <mxGeometry x="3280" y="670" width="190" height="30" as="geometry" />
        </mxCell>
        <mxCell id="TjDZukwJZePtEUUgZBgw-119" style="edgeStyle=orthogonalEdgeStyle;rounded=0;orthogonalLoop=1;jettySize=auto;html=1;verticalAlign=middle;" edge="1" parent="1" source="TjDZukwJZePtEUUgZBgw-114" target="TjDZukwJZePtEUUgZBgw-118">
          <mxGeometry relative="1" as="geometry" />
        </mxCell>
        <mxCell id="TjDZukwJZePtEUUgZBgw-120" value="Improve Resolution (Reduce Step Angle):" style="whiteSpace=wrap;html=1;fontSize=12;fontStyle=1;align=left;verticalAlign=middle;spacingLeft=4;fillColor=#d5e8d4;strokeColor=#82b366;" vertex="1" parent="1">
          <mxGeometry x="3330" y="-230" width="210" height="40" as="geometry" />
        </mxCell>
        <mxCell id="TjDZukwJZePtEUUgZBgw-121" style="edgeStyle=orthogonalEdgeStyle;rounded=0;orthogonalLoop=1;jettySize=auto;html=1;verticalAlign=middle;" edge="1" parent="1" source="TjDZukwJZePtEUUgZBgw-92" target="TjDZukwJZePtEUUgZBgw-120">
          <mxGeometry relative="1" as="geometry" />
        </mxCell>
        <mxCell id="TjDZukwJZePtEUUgZBgw-122" value="- Increase number of phases (control issue) - Increase number of poles" style="whiteSpace=wrap;html=1;fontSize=11;align=left;verticalAlign=middle;spacingLeft=4;fillColor=#f5f5f5;strokeColor=#666666;" vertex="1" parent="1">
          <mxGeometry x="3340" y="-500" width="190" height="50" as="geometry" />
        </mxCell>
        <mxCell id="TjDZukwJZePtEUUgZBgw-123" style="edgeStyle=orthogonalEdgeStyle;rounded=0;orthogonalLoop=1;jettySize=auto;html=1;verticalAlign=middle;" edge="1" parent="1" source="TjDZukwJZePtEUUgZBgw-120" target="TjDZukwJZePtEUUgZBgw-122">
          <mxGeometry relative="1" as="geometry" />
        </mxCell>
        <mxCell id="TjDZukwJZePtEUUgZBgw-124" value="Example: Ns=40 (θs=9°), Nr=50 (θr=7.2°) =&gt; Δθ = 1.8° (200 steps/rev)" style="whiteSpace=wrap;html=1;fontSize=11;align=left;verticalAlign=middle;spacingLeft=4;fillColor=#f5f5f5;strokeColor=#666666;" vertex="1" parent="1">
          <mxGeometry x="3600" y="-350" width="190" height="60" as="geometry" />
        </mxCell>
        <mxCell id="TjDZukwJZePtEUUgZBgw-125" style="edgeStyle=orthogonalEdgeStyle;rounded=0;orthogonalLoop=1;jettySize=auto;html=1;verticalAlign=middle;" edge="1" parent="1" source="TjDZukwJZePtEUUgZBgw-120" target="TjDZukwJZePtEUUgZBgw-124">
          <mxGeometry relative="1" as="geometry" />
        </mxCell>
        <mxCell id="TjDZukwJZePtEUUgZBgw-126" value="Microstepping Drive Mode (VR):" style="whiteSpace=wrap;html=1;fontSize=12;fontStyle=1;align=left;verticalAlign=middle;spacingLeft=4;fillColor=#d5e8d4;strokeColor=#82b366;" vertex="1" parent="1">
          <mxGeometry x="2330" y="-150" width="210" height="40" as="geometry" />
        </mxCell>
        <mxCell id="TjDZukwJZePtEUUgZBgw-127" style="edgeStyle=orthogonalEdgeStyle;rounded=0;orthogonalLoop=1;jettySize=auto;html=1;verticalAlign=middle;" edge="1" parent="1" source="TjDZukwJZePtEUUgZBgw-92" target="TjDZukwJZePtEUUgZBgw-126">
          <mxGeometry relative="1" as="geometry" />
        </mxCell>
        <mxCell id="TjDZukwJZePtEUUgZBgw-128" value="- Reduce step size (e.g. 1/125 full step) - Smoother motion - Reduce positioning oscillations" style="whiteSpace=wrap;html=1;fontSize=11;align=left;verticalAlign=middle;spacingLeft=4;fillColor=#f5f5f5;strokeColor=#666666;" vertex="1" parent="1">
          <mxGeometry x="2060" y="-270" width="190" height="70" as="geometry" />
        </mxCell>
        <mxCell id="TjDZukwJZePtEUUgZBgw-129" style="edgeStyle=orthogonalEdgeStyle;rounded=0;orthogonalLoop=1;jettySize=auto;html=1;verticalAlign=middle;" edge="1" parent="1" source="TjDZukwJZePtEUUgZBgw-126" target="TjDZukwJZePtEUUgZBgw-128">
          <mxGeometry relative="1" as="geometry" />
        </mxCell>
        <mxCell id="TjDZukwJZePtEUUgZBgw-130" value="How: Vary current in phases (sine/cosine) to position resultant magnetic field precisely." style="whiteSpace=wrap;html=1;fontSize=11;align=left;verticalAlign=middle;spacingLeft=4;fillColor=#f5f5f5;strokeColor=#666666;" vertex="1" parent="1">
          <mxGeometry x="2340" y="-390" width="190" height="60" as="geometry" />
        </mxCell>
        <mxCell id="TjDZukwJZePtEUUgZBgw-131" style="edgeStyle=orthogonalEdgeStyle;rounded=0;orthogonalLoop=1;jettySize=auto;html=1;verticalAlign=middle;" edge="1" parent="1" source="TjDZukwJZePtEUUgZBgw-126" target="TjDZukwJZePtEUUgZBgw-130">
          <mxGeometry relative="1" as="geometry" />
        </mxCell>
        <mxCell id="TjDZukwJZePtEUUgZBgw-132" value="5.4. Hybrid Stepper Motor" style="rounded=1;whiteSpace=wrap;html=1;fontSize=16;fillColor=#e1d5e7;strokeColor=#9673a6;verticalAlign=middle;" vertex="1" parent="1">
          <mxGeometry x="260" y="1450" width="180" height="80" as="geometry" />
        </mxCell>
        <mxCell id="TjDZukwJZePtEUUgZBgw-133" style="edgeStyle=orthogonalEdgeStyle;rounded=0;orthogonalLoop=1;jettySize=auto;html=1;verticalAlign=middle;" edge="1" parent="1" source="TjDZukwJZePtEUUgZBgw-3" target="TjDZukwJZePtEUUgZBgw-132">
          <mxGeometry relative="1" as="geometry" />
        </mxCell>
        <mxCell id="TjDZukwJZePtEUUgZBgw-134" value="Most common variety." style="whiteSpace=wrap;html=1;fontSize=12;align=left;verticalAlign=middle;spacingLeft=4;fillColor=#d5e8d4;strokeColor=#82b366;" vertex="1" parent="1">
          <mxGeometry x="20" y="1350" width="220" height="30" as="geometry" />
        </mxCell>
        <mxCell id="TjDZukwJZePtEUUgZBgw-135" style="edgeStyle=orthogonalEdgeStyle;rounded=0;orthogonalLoop=1;jettySize=auto;html=1;verticalAlign=middle;" edge="1" parent="1" source="TjDZukwJZePtEUUgZBgw-132" target="TjDZukwJZePtEUUgZBgw-134">
          <mxGeometry relative="1" as="geometry" />
        </mxCell>
        <mxCell id="TjDZukwJZePtEUUgZBgw-136" value="Hybrid between PM and VR." style="whiteSpace=wrap;html=1;fontSize=12;align=left;verticalAlign=middle;spacingLeft=4;fillColor=#d5e8d4;strokeColor=#82b366;" vertex="1" parent="1">
          <mxGeometry x="10" y="1740" width="220" height="30" as="geometry" />
        </mxCell>
        <mxCell id="TjDZukwJZePtEUUgZBgw-137" style="edgeStyle=orthogonalEdgeStyle;rounded=0;orthogonalLoop=1;jettySize=auto;html=1;verticalAlign=middle;" edge="1" parent="1" source="TjDZukwJZePtEUUgZBgw-132" target="TjDZukwJZePtEUUgZBgw-136">
          <mxGeometry relative="1" as="geometry" />
        </mxCell>
        <mxCell id="TjDZukwJZePtEUUgZBgw-138" value="Rotor: Two magnetized stacks (opposite polarities), teeth offset 1/4 pitch." style="whiteSpace=wrap;html=1;fontSize=12;align=left;verticalAlign=middle;spacingLeft=4;fillColor=#d5e8d4;strokeColor=#82b366;" vertex="1" parent="1">
          <mxGeometry x="240" y="1620" width="220" height="60" as="geometry" />
        </mxCell>
        <mxCell id="TjDZukwJZePtEUUgZBgw-139" style="edgeStyle=orthogonalEdgeStyle;rounded=0;orthogonalLoop=1;jettySize=auto;html=1;verticalAlign=middle;" edge="1" parent="1" source="TjDZukwJZePtEUUgZBgw-132" target="TjDZukwJZePtEUUgZBgw-138">
          <mxGeometry relative="1" as="geometry" />
        </mxCell>
        <mxCell id="TjDZukwJZePtEUUgZBgw-140" value="Stator: Two segments surrounding rotor stacks, each wound to a single phase. Toothed." style="whiteSpace=wrap;html=1;fontSize=12;align=left;verticalAlign=middle;spacingLeft=4;fillColor=#d5e8d4;strokeColor=#82b366;" vertex="1" parent="1">
          <mxGeometry x="-260" y="1595" width="220" height="70" as="geometry" />
        </mxCell>
        <mxCell id="TjDZukwJZePtEUUgZBgw-141" style="edgeStyle=orthogonalEdgeStyle;rounded=0;orthogonalLoop=1;jettySize=auto;html=1;verticalAlign=middle;" edge="1" parent="1" source="TjDZukwJZePtEUUgZBgw-132" target="TjDZukwJZePtEUUgZBgw-140">
          <mxGeometry relative="1" as="geometry" />
        </mxCell>
        <mxCell id="TjDZukwJZePtEUUgZBgw-142" value="Both rotor &amp; stator have teeth, pitch angles equal." style="whiteSpace=wrap;html=1;fontSize=12;align=left;verticalAlign=middle;spacingLeft=4;fillColor=#d5e8d4;strokeColor=#82b366;" vertex="1" parent="1">
          <mxGeometry x="-130" y="1890" width="220" height="50" as="geometry" />
        </mxCell>
        <mxCell id="TjDZukwJZePtEUUgZBgw-143" style="edgeStyle=orthogonalEdgeStyle;rounded=0;orthogonalLoop=1;jettySize=auto;html=1;verticalAlign=middle;" edge="1" parent="1" source="TjDZukwJZePtEUUgZBgw-132" target="TjDZukwJZePtEUUgZBgw-142">
          <mxGeometry relative="1" as="geometry" />
        </mxCell>
        <mxCell id="TjDZukwJZePtEUUgZBgw-144" value="5.5. Phase Wiring" style="rounded=1;whiteSpace=wrap;html=1;fontSize=16;fillColor=#dae8fc;strokeColor=#6c8ebf;verticalAlign=middle;" vertex="1" parent="1">
          <mxGeometry x="-985" y="1430" width="220" height="80" as="geometry" />
        </mxCell>
        <mxCell id="TjDZukwJZePtEUUgZBgw-145" style="edgeStyle=orthogonalEdgeStyle;rounded=0;orthogonalLoop=1;jettySize=auto;html=1;verticalAlign=middle;" edge="1" parent="1" source="TjDZukwJZePtEUUgZBgw-3" target="TjDZukwJZePtEUUgZBgw-144">
          <mxGeometry relative="1" as="geometry" />
        </mxCell>
        <mxCell id="TjDZukwJZePtEUUgZBgw-146" value="Bipolar Wiring:" style="whiteSpace=wrap;html=1;fontSize=12;fontStyle=1;align=left;verticalAlign=middle;spacingLeft=4;fillColor=#f5f5f5;strokeColor=#666666;" vertex="1" parent="1">
          <mxGeometry x="-1215" y="1580" width="210" height="30" as="geometry" />
        </mxCell>
        <mxCell id="TjDZukwJZePtEUUgZBgw-147" style="edgeStyle=orthogonalEdgeStyle;rounded=0;orthogonalLoop=1;jettySize=auto;html=1;verticalAlign=middle;" edge="1" parent="1" source="TjDZukwJZePtEUUgZBgw-144" target="TjDZukwJZePtEUUgZBgw-146">
          <mxGeometry relative="1" as="geometry" />
        </mxCell>
        <mxCell id="TjDZukwJZePtEUUgZBgw-148" value="- Stator: one winding per phase. - 2-phase motor: 4 leads (a+,a-,b+,b-). - Reversal of current direction necessary (H-bridge)." style="whiteSpace=wrap;html=1;fontSize=11;align=left;verticalAlign=middle;spacingLeft=4;fillColor=#fff2cc;strokeColor=#d6b656;" vertex="1" parent="1">
          <mxGeometry x="-1220" y="1705" width="220" height="80" as="geometry" />
        </mxCell>
        <mxCell id="TjDZukwJZePtEUUgZBgw-149" style="edgeStyle=orthogonalEdgeStyle;rounded=0;orthogonalLoop=1;jettySize=auto;html=1;verticalAlign=middle;" edge="1" parent="1" source="TjDZukwJZePtEUUgZBgw-146" target="TjDZukwJZePtEUUgZBgw-148">
          <mxGeometry relative="1" as="geometry" />
        </mxCell>
        <mxCell id="TjDZukwJZePtEUUgZBgw-150" value="Unipolar Wiring:" style="whiteSpace=wrap;html=1;fontSize=12;fontStyle=1;align=left;verticalAlign=middle;spacingLeft=4;fillColor=#f5f5f5;strokeColor=#666666;" vertex="1" parent="1">
          <mxGeometry x="-980" y="1630" width="210" height="30" as="geometry" />
        </mxCell>
        <mxCell id="TjDZukwJZePtEUUgZBgw-151" style="edgeStyle=orthogonalEdgeStyle;rounded=0;orthogonalLoop=1;jettySize=auto;html=1;verticalAlign=middle;" edge="1" parent="1" source="TjDZukwJZePtEUUgZBgw-144" target="TjDZukwJZePtEUUgZBgw-150">
          <mxGeometry relative="1" as="geometry" />
        </mxCell>
        <mxCell id="TjDZukwJZePtEUUgZBgw-152" value="- Each phase winding has center tap (to ground/V+). - Different winding segment switched for each flux direction. - Full step CW: A-&gt;B-&gt;Ā-&gt;B̄" style="whiteSpace=wrap;html=1;fontSize=11;align=left;verticalAlign=middle;spacingLeft=4;fillColor=#fff2cc;strokeColor=#d6b656;" vertex="1" parent="1">
          <mxGeometry x="-885" y="1785" width="220" height="90" as="geometry" />
        </mxCell>
        <mxCell id="TjDZukwJZePtEUUgZBgw-153" style="edgeStyle=orthogonalEdgeStyle;rounded=0;orthogonalLoop=1;jettySize=auto;html=1;verticalAlign=middle;" edge="1" parent="1" source="TjDZukwJZePtEUUgZBgw-150" target="TjDZukwJZePtEUUgZBgw-152">
          <mxGeometry relative="1" as="geometry" />
        </mxCell>
        <mxCell id="TjDZukwJZePtEUUgZBgw-154" value="5.6. Driver Circuit" style="rounded=1;whiteSpace=wrap;html=1;fontSize=16;fillColor=#dae8fc;strokeColor=#6c8ebf;verticalAlign=middle;" vertex="1" parent="1">
          <mxGeometry x="1530" y="1297.5" width="240" height="80" as="geometry" />
        </mxCell>
        <mxCell id="TjDZukwJZePtEUUgZBgw-155" style="edgeStyle=orthogonalEdgeStyle;rounded=0;orthogonalLoop=1;jettySize=auto;html=1;verticalAlign=middle;" edge="1" parent="1" source="TjDZukwJZePtEUUgZBgw-3" target="TjDZukwJZePtEUUgZBgw-154">
          <mxGeometry relative="1" as="geometry" />
        </mxCell>
        <mxCell id="TjDZukwJZePtEUUgZBgw-156" value="Basic Driver System:" style="whiteSpace=wrap;html=1;fontSize=12;fontStyle=1;align=left;verticalAlign=middle;spacingLeft=4;fillColor=#f5f5f5;strokeColor=#666666;" vertex="1" parent="1">
          <mxGeometry x="1640" y="1517.5" width="210" height="30" as="geometry" />
        </mxCell>
        <mxCell id="TjDZukwJZePtEUUgZBgw-157" style="edgeStyle=orthogonalEdgeStyle;rounded=0;orthogonalLoop=1;jettySize=auto;html=1;verticalAlign=middle;" edge="1" parent="1" source="TjDZukwJZePtEUUgZBgw-154" target="TjDZukwJZePtEUUgZBgw-156">
          <mxGeometry relative="1" as="geometry" />
        </mxCell>
        <mxCell id="TjDZukwJZePtEUUgZBgw-158" value="- Microcontroller/Indexer - Driver (Translator + Amplifier) - Motor - Power Supply - Pulses: Position (step), Direction" style="whiteSpace=wrap;html=1;fontSize=11;align=left;verticalAlign=middle;spacingLeft=4;fillColor=#fff2cc;strokeColor=#d6b656;" vertex="1" parent="1">
          <mxGeometry x="1650" y="1617.5" width="190" height="110" as="geometry" />
        </mxCell>
        <mxCell id="TjDZukwJZePtEUUgZBgw-159" style="edgeStyle=orthogonalEdgeStyle;rounded=0;orthogonalLoop=1;jettySize=auto;html=1;verticalAlign=middle;" edge="1" parent="1" source="TjDZukwJZePtEUUgZBgw-156" target="TjDZukwJZePtEUUgZBgw-158">
          <mxGeometry relative="1" as="geometry" />
        </mxCell>
        <mxCell id="TjDZukwJZePtEUUgZBgw-160" value="Bipolar Driver Circuit:" style="whiteSpace=wrap;html=1;fontSize=12;fontStyle=1;align=left;verticalAlign=middle;spacingLeft=4;fillColor=#f5f5f5;strokeColor=#666666;" vertex="1" parent="1">
          <mxGeometry x="1840" y="1402.5" width="210" height="30" as="geometry" />
        </mxCell>
        <mxCell id="TjDZukwJZePtEUUgZBgw-161" style="edgeStyle=orthogonalEdgeStyle;rounded=0;orthogonalLoop=1;jettySize=auto;html=1;verticalAlign=middle;" edge="1" parent="1" source="TjDZukwJZePtEUUgZBgw-154" target="TjDZukwJZePtEUUgZBgw-160">
          <mxGeometry relative="1" as="geometry" />
        </mxCell>
        <mxCell id="TjDZukwJZePtEUUgZBgw-162" value="- Translator inputs (STEP, HALF/FULL, CW/CCW, RESET) - H-Bridge per phase (S1-S4 for PhA, S5-S8 for PhB) - Vcc, Current sense resistors (R)" style="whiteSpace=wrap;html=1;fontSize=11;align=left;verticalAlign=middle;spacingLeft=4;fillColor=#fff2cc;strokeColor=#d6b656;" vertex="1" parent="1">
          <mxGeometry x="1880" y="1547.5" width="190" height="100" as="geometry" />
        </mxCell>
        <mxCell id="TjDZukwJZePtEUUgZBgw-163" style="edgeStyle=orthogonalEdgeStyle;rounded=0;orthogonalLoop=1;jettySize=auto;html=1;verticalAlign=middle;" edge="1" parent="1" source="TjDZukwJZePtEUUgZBgw-160" target="TjDZukwJZePtEUUgZBgw-162">
          <mxGeometry relative="1" as="geometry" />
        </mxCell>
        <mxCell id="TjDZukwJZePtEUUgZBgw-164" value="Unipolar Driver Circuit:" style="whiteSpace=wrap;html=1;fontSize=12;fontStyle=1;align=left;verticalAlign=middle;spacingLeft=4;fillColor=#f5f5f5;strokeColor=#666666;" vertex="1" parent="1">
          <mxGeometry x="1730" y="1212.5" width="210" height="30" as="geometry" />
        </mxCell>
        <mxCell id="TjDZukwJZePtEUUgZBgw-165" style="edgeStyle=orthogonalEdgeStyle;rounded=0;orthogonalLoop=1;jettySize=auto;html=1;verticalAlign=middle;" edge="1" parent="1" source="TjDZukwJZePtEUUgZBgw-154" target="TjDZukwJZePtEUUgZBgw-164">
          <mxGeometry relative="1" as="geometry" />
        </mxCell>
        <mxCell id="TjDZukwJZePtEUUgZBgw-166" value="- Translator inputs (same) - Center tap to V+ - MOSFET switches (S1-S4) connect winding ends to Ground." style="whiteSpace=wrap;html=1;fontSize=11;align=left;verticalAlign=middle;spacingLeft=4;fillColor=#fff2cc;strokeColor=#d6b656;" vertex="1" parent="1">
          <mxGeometry x="2010" y="1302.5" width="190" height="80" as="geometry" />
        </mxCell>
        <mxCell id="TjDZukwJZePtEUUgZBgw-167" style="edgeStyle=orthogonalEdgeStyle;rounded=0;orthogonalLoop=1;jettySize=auto;html=1;verticalAlign=middle;" edge="1" parent="1" source="TjDZukwJZePtEUUgZBgw-164" target="TjDZukwJZePtEUUgZBgw-166">
          <mxGeometry relative="1" as="geometry" />
        </mxCell>
        <mxCell id="TjDZukwJZePtEUUgZBgw-168" value="Assignment" style="rounded=1;whiteSpace=wrap;html=1;fontSize=16;fillColor=#b1ddf0;strokeColor=#10739e;verticalAlign=middle;" vertex="1" parent="1">
          <mxGeometry x="870" y="1250" width="220" height="80" as="geometry" />
        </mxCell>
        <mxCell id="TjDZukwJZePtEUUgZBgw-169" style="edgeStyle=orthogonalEdgeStyle;rounded=0;orthogonalLoop=1;jettySize=auto;html=1;verticalAlign=middle;" edge="1" parent="1" source="TjDZukwJZePtEUUgZBgw-3" target="TjDZukwJZePtEUUgZBgw-168">
          <mxGeometry relative="1" as="geometry" />
        </mxCell>
        <mxCell id="TjDZukwJZePtEUUgZBgw-170" value="1) Comparison of PM, VR, and Hybrid Stepper Motors" style="whiteSpace=wrap;html=1;fontSize=12;align=left;verticalAlign=middle;spacingLeft=4;fillColor=#f5f5f5;strokeColor=#666666;" vertex="1" parent="1">
          <mxGeometry x="610" y="1390" width="210" height="50" as="geometry" />
        </mxCell>
        <mxCell id="TjDZukwJZePtEUUgZBgw-171" style="edgeStyle=orthogonalEdgeStyle;rounded=0;orthogonalLoop=1;jettySize=auto;html=1;verticalAlign=middle;" edge="1" parent="1" source="TjDZukwJZePtEUUgZBgw-168" target="TjDZukwJZePtEUUgZBgw-170">
          <mxGeometry relative="1" as="geometry" />
        </mxCell>
        <mxCell id="TjDZukwJZePtEUUgZBgw-172" value="2) Applications of Stepper Motors" style="whiteSpace=wrap;html=1;fontSize=12;align=left;verticalAlign=middle;spacingLeft=4;fillColor=#f5f5f5;strokeColor=#666666;" vertex="1" parent="1">
          <mxGeometry x="875" y="1400" width="210" height="40" as="geometry" />
        </mxCell>
        <mxCell id="TjDZukwJZePtEUUgZBgw-173" style="edgeStyle=orthogonalEdgeStyle;rounded=0;orthogonalLoop=1;jettySize=auto;html=1;verticalAlign=middle;" edge="1" parent="1" source="TjDZukwJZePtEUUgZBgw-168" target="TjDZukwJZePtEUUgZBgw-172">
          <mxGeometry relative="1" as="geometry" />
        </mxCell>
        <mxCell id="TjDZukwJZePtEUUgZBgw-178" style="edgeStyle=orthogonalEdgeStyle;rounded=0;orthogonalLoop=1;jettySize=auto;html=1;exitX=0.5;exitY=1;exitDx=0;exitDy=0;verticalAlign=middle;" edge="1" parent="1" source="TjDZukwJZePtEUUgZBgw-120" target="TjDZukwJZePtEUUgZBgw-120">
          <mxGeometry relative="1" as="geometry" />
        </mxCell>
        <mxCell id="TjDZukwJZePtEUUgZBgw-185" value="5.1. Introduction" style="rounded=1;whiteSpace=wrap;html=1;fontSize=16;fillColor=#f8cecc;strokeColor=#b85450;verticalAlign=middle;" vertex="1" parent="1">
          <mxGeometry x="-4000" y="5840" width="160" height="50" as="geometry" />
        </mxCell>
        <mxCell id="TjDZukwJZePtEUUgZBgw-186" value="Definition: Electromechanical device, converts electrical pulses to discrete mechanical movements." style="whiteSpace=wrap;html=1;fontSize=12;align=left;verticalAlign=middle;spacingLeft=4;fillColor=#fff2cc;strokeColor=#d6b656;" vertex="1" parent="1">
          <mxGeometry x="-3680" y="5260" width="540" height="40" as="geometry" />
        </mxCell>
        <mxCell id="TjDZukwJZePtEUUgZBgw-188" value="Operation: Shaft rotates in discrete step increments via electrical command pulses in proper sequence." style="whiteSpace=wrap;html=1;fontSize=12;align=left;verticalAlign=middle;spacingLeft=4;fillColor=#fff2cc;strokeColor=#d6b656;" vertex="1" parent="1">
          <mxGeometry x="-3681.25" y="6270" width="561.25" height="40" as="geometry" />
        </mxCell>
        <mxCell id="TjDZukwJZePtEUUgZBgw-190" value="Control Relationships" style="whiteSpace=wrap;html=1;fontSize=12;fontStyle=1;align=left;verticalAlign=middle;spacingLeft=4;fillColor=#fff2cc;strokeColor=#d6b656;" vertex="1" parent="1">
          <mxGeometry x="-3681.25" y="6180" width="140" height="30" as="geometry" />
        </mxCell>
        <mxCell id="TjDZukwJZePtEUUgZBgw-192" value="Rotation Direction (CW/CCW): by sequence of applied pulses." style="whiteSpace=wrap;html=1;fontSize=11;align=left;verticalAlign=middle;spacingLeft=4;fillColor=#f5f5f5;strokeColor=#666666;" vertex="1" parent="1">
          <mxGeometry x="-3511.25" y="6180" width="320" height="30" as="geometry" />
        </mxCell>
        <mxCell id="TjDZukwJZePtEUUgZBgw-194" value="Rotation Speed: by frequency of input pulses." style="whiteSpace=wrap;html=1;fontSize=11;align=left;verticalAlign=middle;spacingLeft=4;fillColor=#f5f5f5;strokeColor=#666666;" vertex="1" parent="1">
          <mxGeometry x="-3511.25" y="6220" width="230" height="30" as="geometry" />
        </mxCell>
        <mxCell id="TjDZukwJZePtEUUgZBgw-196" value="Rotation Length (degree/revolution): by number of applied pulses." style="whiteSpace=wrap;html=1;fontSize=11;align=left;verticalAlign=middle;spacingLeft=4;fillColor=#f5f5f5;strokeColor=#666666;" vertex="1" parent="1">
          <mxGeometry x="-3511.25" y="6140" width="330" height="30" as="geometry" />
        </mxCell>
        <mxCell id="TjDZukwJZePtEUUgZBgw-198" value="Benefits" style="whiteSpace=wrap;html=1;fontSize=12;fontStyle=1;align=center;verticalAlign=middle;spacingLeft=4;fillColor=#fff2cc;strokeColor=#d6b656;" vertex="1" parent="1">
          <mxGeometry x="-3681.25" y="5380" width="50" height="30" as="geometry" />
        </mxCell>
        <mxCell id="TjDZukwJZePtEUUgZBgw-200" value="Easy to produce/cheap construction." style="whiteSpace=wrap;html=1;fontSize=11;align=left;verticalAlign=middle;spacingLeft=4;fillColor=#f5f5f5;strokeColor=#666666;" vertex="1" parent="1">
          <mxGeometry x="-3601.25" y="5400" width="190" height="30" as="geometry" />
        </mxCell>
        <mxCell id="TjDZukwJZePtEUUgZBgw-202" value="Easy control (speed/position) without feedback." style="whiteSpace=wrap;html=1;fontSize=11;align=left;verticalAlign=middle;spacingLeft=4;fillColor=#f5f5f5;strokeColor=#666666;" vertex="1" parent="1">
          <mxGeometry x="-3601.25" y="5320" width="240" height="30" as="geometry" />
        </mxCell>
        <mxCell id="TjDZukwJZePtEUUgZBgw-204" value="Full torque at standstill." style="whiteSpace=wrap;html=1;fontSize=11;align=left;verticalAlign=middle;spacingLeft=4;fillColor=#f5f5f5;strokeColor=#666666;" vertex="1" parent="1">
          <mxGeometry x="-3601.25" y="5440" width="120" height="30" as="geometry" />
        </mxCell>
        <mxCell id="TjDZukwJZePtEUUgZBgw-206" value="Excellent response (start/stop/reverse)." style="whiteSpace=wrap;html=1;fontSize=11;align=left;verticalAlign=middle;spacingLeft=4;fillColor=#f5f5f5;strokeColor=#666666;" vertex="1" parent="1">
          <mxGeometry x="-3601.25" y="5360" width="200" height="30" as="geometry" />
        </mxCell>
        <mxCell id="TjDZukwJZePtEUUgZBgw-208" value="Applications" style="whiteSpace=wrap;html=1;fontSize=12;fontStyle=1;align=left;verticalAlign=middle;spacingLeft=4;fillColor=#fff2cc;strokeColor=#d6b656;" vertex="1" parent="1">
          <mxGeometry x="-3680" y="5570" width="80" height="30" as="geometry" />
        </mxCell>
        <mxCell id="TjDZukwJZePtEUUgZBgw-210" value="Precise movements &amp; positioning profiles (3D printers, CNC)." style="whiteSpace=wrap;html=1;fontSize=11;align=left;verticalAlign=middle;spacingLeft=4;fillColor=#f5f5f5;strokeColor=#666666;" vertex="1" parent="1">
          <mxGeometry x="-3570" y="5570" width="310" height="30" as="geometry" />
        </mxCell>
        <mxCell id="TjDZukwJZePtEUUgZBgw-212" value="Automation, machinery adjustments." style="whiteSpace=wrap;html=1;fontSize=11;align=left;verticalAlign=middle;spacingLeft=4;fillColor=#f5f5f5;strokeColor=#666666;" vertex="1" parent="1">
          <mxGeometry x="-3570" y="5530" width="190" height="30" as="geometry" />
        </mxCell>
        <mxCell id="TjDZukwJZePtEUUgZBgw-214" value="Handling systems, robotics." style="whiteSpace=wrap;html=1;fontSize=11;align=left;verticalAlign=middle;spacingLeft=4;fillColor=#f5f5f5;strokeColor=#666666;" vertex="1" parent="1">
          <mxGeometry x="-3570" y="5490" width="150" height="30" as="geometry" />
        </mxCell>
        <mxCell id="TjDZukwJZePtEUUgZBgw-216" value="Textile/printing machines, paper converting." style="whiteSpace=wrap;html=1;fontSize=11;align=left;verticalAlign=middle;spacingLeft=4;fillColor=#f5f5f5;strokeColor=#666666;" vertex="1" parent="1">
          <mxGeometry x="-3570" y="5610" width="220" height="30" as="geometry" />
        </mxCell>
        <mxCell id="TjDZukwJZePtEUUgZBgw-218" value="Medical equipments." style="whiteSpace=wrap;html=1;fontSize=11;align=left;verticalAlign=middle;spacingLeft=4;fillColor=#f5f5f5;strokeColor=#666666;" vertex="1" parent="1">
          <mxGeometry x="-3570" y="5650" width="110" height="30" as="geometry" />
        </mxCell>
        <mxCell id="TjDZukwJZePtEUUgZBgw-220" value="Classification of Stepper Motors" style="whiteSpace=wrap;html=1;fontSize=12;fontStyle=1;align=left;verticalAlign=middle;spacingLeft=4;fillColor=#fff2cc;strokeColor=#d6b656;" vertex="1" parent="1">
          <mxGeometry x="-3681.25" y="5850" width="200" height="30" as="geometry" />
        </mxCell>
        <mxCell id="TjDZukwJZePtEUUgZBgw-222" value="Rotor Type:" style="whiteSpace=wrap;html=1;fontSize=11;fontStyle=1;align=left;verticalAlign=middle;spacingLeft=4;fillColor=#f5f5f5;strokeColor=#666666;" vertex="1" parent="1">
          <mxGeometry x="-3448.75" y="5700" width="80" height="30" as="geometry" />
        </mxCell>
        <mxCell id="TjDZukwJZePtEUUgZBgw-224" value="Variable-Reluctance (VR)" style="whiteSpace=wrap;html=1;fontSize=10;align=left;verticalAlign=middle;spacingLeft=4;" vertex="1" parent="1">
          <mxGeometry x="-3338.75" y="5660" width="120" height="30" as="geometry" />
        </mxCell>
        <mxCell id="TjDZukwJZePtEUUgZBgw-226" value="Permanent Magnet (PM)" style="whiteSpace=wrap;html=1;fontSize=10;align=left;verticalAlign=middle;spacingLeft=4;" vertex="1" parent="1">
          <mxGeometry x="-3338.75" y="5700" width="120" height="30" as="geometry" />
        </mxCell>
        <mxCell id="TjDZukwJZePtEUUgZBgw-228" value="Hybrid (HB)" style="whiteSpace=wrap;html=1;fontSize=10;align=center;verticalAlign=middle;spacingLeft=4;" vertex="1" parent="1">
          <mxGeometry x="-3338.75" y="5740" width="120" height="30" as="geometry" />
        </mxCell>
        <mxCell id="TjDZukwJZePtEUUgZBgw-230" value="Phase Wiring" style="whiteSpace=wrap;html=1;fontSize=11;fontStyle=1;align=left;verticalAlign=middle;spacingLeft=4;fillColor=#f5f5f5;strokeColor=#666666;" vertex="1" parent="1">
          <mxGeometry x="-3448.75" y="5810" width="80" height="30" as="geometry" />
        </mxCell>
        <mxCell id="TjDZukwJZePtEUUgZBgw-232" value="Unipolar" style="whiteSpace=wrap;html=1;fontSize=10;align=center;verticalAlign=middle;spacingLeft=4;" vertex="1" parent="1">
          <mxGeometry x="-3338.75" y="5830" width="50" height="30" as="geometry" />
        </mxCell>
        <mxCell id="TjDZukwJZePtEUUgZBgw-234" value="Bipolar" style="whiteSpace=wrap;html=1;fontSize=10;align=center;verticalAlign=middle;spacingLeft=4;" vertex="1" parent="1">
          <mxGeometry x="-3338.75" y="5790" width="50" height="30" as="geometry" />
        </mxCell>
        <mxCell id="TjDZukwJZePtEUUgZBgw-236" value="Control Mode" style="whiteSpace=wrap;html=1;fontSize=11;fontStyle=1;align=left;verticalAlign=middle;spacingLeft=4;fillColor=#f5f5f5;strokeColor=#666666;" vertex="1" parent="1">
          <mxGeometry x="-3448.75" y="5940" width="85" height="30" as="geometry" />
        </mxCell>
        <mxCell id="TjDZukwJZePtEUUgZBgw-238" value="Wave Drive" style="whiteSpace=wrap;html=1;fontSize=10;align=center;verticalAlign=middle;spacingLeft=4;" vertex="1" parent="1">
          <mxGeometry x="-3338.75" y="5920" width="80" height="30" as="geometry" />
        </mxCell>
        <mxCell id="TjDZukwJZePtEUUgZBgw-240" value="Full Step Drive" style="whiteSpace=wrap;html=1;fontSize=10;align=center;verticalAlign=middle;spacingLeft=4;" vertex="1" parent="1">
          <mxGeometry x="-3338.75" y="6000" width="80" height="30" as="geometry" />
        </mxCell>
        <mxCell id="TjDZukwJZePtEUUgZBgw-242" value="Half Step Drive" style="whiteSpace=wrap;html=1;fontSize=10;align=center;verticalAlign=middle;spacingLeft=4;" vertex="1" parent="1">
          <mxGeometry x="-3338.75" y="5880" width="80" height="30" as="geometry" />
        </mxCell>
        <mxCell id="TjDZukwJZePtEUUgZBgw-244" value="Microstep Drive" style="whiteSpace=wrap;html=1;fontSize=10;align=center;verticalAlign=middle;spacingLeft=4;" vertex="1" parent="1">
          <mxGeometry x="-3338.75" y="5960" width="80" height="30" as="geometry" />
        </mxCell>
        <mxCell id="TjDZukwJZePtEUUgZBgw-246" value="Number of stack of teeth (rotor segment)" style="whiteSpace=wrap;html=1;fontSize=11;fontStyle=1;align=left;verticalAlign=middle;spacingLeft=4;fillColor=#f5f5f5;strokeColor=#666666;" vertex="1" parent="1">
          <mxGeometry x="-3448.75" y="6070" width="120" height="30" as="geometry" />
        </mxCell>
        <mxCell id="TjDZukwJZePtEUUgZBgw-248" value="Single-stack" style="whiteSpace=wrap;html=1;fontSize=10;align=left;verticalAlign=middle;spacingLeft=4;" vertex="1" parent="1">
          <mxGeometry x="-3298.75" y="6050" width="70" height="30" as="geometry" />
        </mxCell>
        <mxCell id="TjDZukwJZePtEUUgZBgw-250" value="Multiple-stack" style="whiteSpace=wrap;html=1;fontSize=10;align=left;verticalAlign=middle;spacingLeft=4;" vertex="1" parent="1">
          <mxGeometry x="-3298.75" y="6090" width="70" height="30" as="geometry" />
        </mxCell>
        <mxCell id="TjDZukwJZePtEUUgZBgw-253" value="" style="endArrow=classic;html=1;rounded=0;entryX=0;entryY=0.5;entryDx=0;entryDy=0;exitX=1;exitY=0.5;exitDx=0;exitDy=0;verticalAlign=middle;" edge="1" parent="1" source="TjDZukwJZePtEUUgZBgw-185" target="TjDZukwJZePtEUUgZBgw-186">
          <mxGeometry width="50" height="50" relative="1" as="geometry">
            <mxPoint x="-3620" y="5800" as="sourcePoint" />
            <mxPoint x="-3570" y="5750" as="targetPoint" />
          </mxGeometry>
        </mxCell>
        <mxCell id="TjDZukwJZePtEUUgZBgw-254" value="" style="endArrow=classic;html=1;rounded=0;entryX=0;entryY=0.5;entryDx=0;entryDy=0;exitX=1;exitY=0.5;exitDx=0;exitDy=0;verticalAlign=middle;" edge="1" parent="1" source="TjDZukwJZePtEUUgZBgw-185" target="TjDZukwJZePtEUUgZBgw-198">
          <mxGeometry width="50" height="50" relative="1" as="geometry">
            <mxPoint x="-3620" y="5800" as="sourcePoint" />
            <mxPoint x="-3570" y="5750" as="targetPoint" />
          </mxGeometry>
        </mxCell>
        <mxCell id="TjDZukwJZePtEUUgZBgw-255" value="" style="endArrow=classic;html=1;rounded=0;entryX=0;entryY=0.5;entryDx=0;entryDy=0;exitX=1;exitY=0.5;exitDx=0;exitDy=0;verticalAlign=middle;" edge="1" parent="1" source="TjDZukwJZePtEUUgZBgw-198" target="TjDZukwJZePtEUUgZBgw-206">
          <mxGeometry width="50" height="50" relative="1" as="geometry">
            <mxPoint x="-3491.25" y="5430" as="sourcePoint" />
            <mxPoint x="-3441.25" y="5380" as="targetPoint" />
          </mxGeometry>
        </mxCell>
        <mxCell id="TjDZukwJZePtEUUgZBgw-256" value="" style="endArrow=classic;html=1;rounded=0;entryX=0;entryY=0.5;entryDx=0;entryDy=0;exitX=1;exitY=0.5;exitDx=0;exitDy=0;verticalAlign=middle;" edge="1" parent="1" source="TjDZukwJZePtEUUgZBgw-198" target="TjDZukwJZePtEUUgZBgw-200">
          <mxGeometry width="50" height="50" relative="1" as="geometry">
            <mxPoint x="-3591.25" y="5405" as="sourcePoint" />
            <mxPoint x="-3461.25" y="5290" as="targetPoint" />
          </mxGeometry>
        </mxCell>
        <mxCell id="TjDZukwJZePtEUUgZBgw-257" value="" style="endArrow=classic;html=1;rounded=0;entryX=0;entryY=0.5;entryDx=0;entryDy=0;exitX=1;exitY=0.5;exitDx=0;exitDy=0;verticalAlign=middle;" edge="1" parent="1" source="TjDZukwJZePtEUUgZBgw-198" target="TjDZukwJZePtEUUgZBgw-204">
          <mxGeometry width="50" height="50" relative="1" as="geometry">
            <mxPoint x="-3581.25" y="5415" as="sourcePoint" />
            <mxPoint x="-3451.25" y="5300" as="targetPoint" />
          </mxGeometry>
        </mxCell>
        <mxCell id="TjDZukwJZePtEUUgZBgw-258" value="" style="endArrow=classic;html=1;rounded=0;entryX=0;entryY=0.5;entryDx=0;entryDy=0;exitX=1;exitY=0.5;exitDx=0;exitDy=0;verticalAlign=middle;" edge="1" parent="1" source="TjDZukwJZePtEUUgZBgw-198" target="TjDZukwJZePtEUUgZBgw-202">
          <mxGeometry width="50" height="50" relative="1" as="geometry">
            <mxPoint x="-3571.25" y="5425" as="sourcePoint" />
            <mxPoint x="-3441.25" y="5310" as="targetPoint" />
          </mxGeometry>
        </mxCell>
        <mxCell id="TjDZukwJZePtEUUgZBgw-259" value="" style="endArrow=classic;html=1;rounded=0;entryX=0;entryY=0.5;entryDx=0;entryDy=0;exitX=1;exitY=0.5;exitDx=0;exitDy=0;verticalAlign=middle;" edge="1" parent="1" source="TjDZukwJZePtEUUgZBgw-185" target="TjDZukwJZePtEUUgZBgw-208">
          <mxGeometry width="50" height="50" relative="1" as="geometry">
            <mxPoint x="-3620" y="5720" as="sourcePoint" />
            <mxPoint x="-3570" y="5670" as="targetPoint" />
          </mxGeometry>
        </mxCell>
        <mxCell id="TjDZukwJZePtEUUgZBgw-261" value="" style="endArrow=classic;html=1;rounded=0;entryX=0;entryY=0.5;entryDx=0;entryDy=0;exitX=1;exitY=0.5;exitDx=0;exitDy=0;verticalAlign=middle;" edge="1" parent="1" source="TjDZukwJZePtEUUgZBgw-208" target="TjDZukwJZePtEUUgZBgw-214">
          <mxGeometry width="50" height="50" relative="1" as="geometry">
            <mxPoint x="-3790" y="5685" as="sourcePoint" />
            <mxPoint x="-3670" y="5595" as="targetPoint" />
          </mxGeometry>
        </mxCell>
        <mxCell id="TjDZukwJZePtEUUgZBgw-262" value="" style="endArrow=classic;html=1;rounded=0;entryX=0;entryY=0.5;entryDx=0;entryDy=0;exitX=1;exitY=0.5;exitDx=0;exitDy=0;verticalAlign=middle;" edge="1" parent="1" source="TjDZukwJZePtEUUgZBgw-208" target="TjDZukwJZePtEUUgZBgw-212">
          <mxGeometry width="50" height="50" relative="1" as="geometry">
            <mxPoint x="-3780" y="5695" as="sourcePoint" />
            <mxPoint x="-3660" y="5605" as="targetPoint" />
          </mxGeometry>
        </mxCell>
        <mxCell id="TjDZukwJZePtEUUgZBgw-263" value="" style="endArrow=classic;html=1;rounded=0;entryX=0;entryY=0.5;entryDx=0;entryDy=0;exitX=1;exitY=0.5;exitDx=0;exitDy=0;verticalAlign=middle;" edge="1" parent="1" source="TjDZukwJZePtEUUgZBgw-208" target="TjDZukwJZePtEUUgZBgw-210">
          <mxGeometry width="50" height="50" relative="1" as="geometry">
            <mxPoint x="-3770" y="5705" as="sourcePoint" />
            <mxPoint x="-3650" y="5615" as="targetPoint" />
          </mxGeometry>
        </mxCell>
        <mxCell id="TjDZukwJZePtEUUgZBgw-264" value="" style="endArrow=classic;html=1;rounded=0;entryX=0;entryY=0.5;entryDx=0;entryDy=0;exitX=1;exitY=0.5;exitDx=0;exitDy=0;verticalAlign=middle;" edge="1" parent="1" source="TjDZukwJZePtEUUgZBgw-208" target="TjDZukwJZePtEUUgZBgw-216">
          <mxGeometry width="50" height="50" relative="1" as="geometry">
            <mxPoint x="-3760" y="5715" as="sourcePoint" />
            <mxPoint x="-3640" y="5625" as="targetPoint" />
          </mxGeometry>
        </mxCell>
        <mxCell id="TjDZukwJZePtEUUgZBgw-265" value="" style="endArrow=classic;html=1;rounded=0;entryX=0;entryY=0.5;entryDx=0;entryDy=0;exitX=1;exitY=0.5;exitDx=0;exitDy=0;verticalAlign=middle;" edge="1" parent="1" source="TjDZukwJZePtEUUgZBgw-208" target="TjDZukwJZePtEUUgZBgw-218">
          <mxGeometry width="50" height="50" relative="1" as="geometry">
            <mxPoint x="-3750" y="5725" as="sourcePoint" />
            <mxPoint x="-3630" y="5635" as="targetPoint" />
          </mxGeometry>
        </mxCell>
        <mxCell id="TjDZukwJZePtEUUgZBgw-267" value="" style="endArrow=classic;html=1;rounded=0;entryX=0;entryY=0.5;entryDx=0;entryDy=0;exitX=1;exitY=0.5;exitDx=0;exitDy=0;verticalAlign=middle;" edge="1" parent="1" source="TjDZukwJZePtEUUgZBgw-185" target="TjDZukwJZePtEUUgZBgw-220">
          <mxGeometry width="50" height="50" relative="1" as="geometry">
            <mxPoint x="-3700" y="5840" as="sourcePoint" />
            <mxPoint x="-3650" y="5790" as="targetPoint" />
          </mxGeometry>
        </mxCell>
        <mxCell id="TjDZukwJZePtEUUgZBgw-268" value="" style="endArrow=classic;html=1;rounded=0;entryX=0;entryY=0.5;entryDx=0;entryDy=0;exitX=1;exitY=0.5;exitDx=0;exitDy=0;verticalAlign=middle;" edge="1" parent="1" source="TjDZukwJZePtEUUgZBgw-220" target="TjDZukwJZePtEUUgZBgw-246">
          <mxGeometry width="50" height="50" relative="1" as="geometry">
            <mxPoint x="-3563.75" y="5660" as="sourcePoint" />
            <mxPoint x="-3493.75" y="5730" as="targetPoint" />
          </mxGeometry>
        </mxCell>
        <mxCell id="TjDZukwJZePtEUUgZBgw-269" value="" style="endArrow=classic;html=1;rounded=0;entryX=0;entryY=0.5;entryDx=0;entryDy=0;exitX=1;exitY=0.5;exitDx=0;exitDy=0;verticalAlign=middle;" edge="1" parent="1" source="TjDZukwJZePtEUUgZBgw-246" target="TjDZukwJZePtEUUgZBgw-248">
          <mxGeometry width="50" height="50" relative="1" as="geometry">
            <mxPoint x="-3103.75" y="6110" as="sourcePoint" />
            <mxPoint x="-3033.75" y="6195" as="targetPoint" />
          </mxGeometry>
        </mxCell>
        <mxCell id="TjDZukwJZePtEUUgZBgw-270" value="" style="endArrow=classic;html=1;rounded=0;entryX=0;entryY=0.5;entryDx=0;entryDy=0;verticalAlign=middle;exitX=1;exitY=0.5;exitDx=0;exitDy=0;" edge="1" parent="1" source="TjDZukwJZePtEUUgZBgw-246" target="TjDZukwJZePtEUUgZBgw-250">
          <mxGeometry width="50" height="50" relative="1" as="geometry">
            <mxPoint x="-3223.75" y="6090" as="sourcePoint" />
            <mxPoint x="-3093.75" y="6245" as="targetPoint" />
          </mxGeometry>
        </mxCell>
        <mxCell id="TjDZukwJZePtEUUgZBgw-271" value="" style="endArrow=classic;html=1;rounded=0;entryX=0;entryY=0.5;entryDx=0;entryDy=0;exitX=1;exitY=0.5;exitDx=0;exitDy=0;verticalAlign=middle;" edge="1" parent="1" source="TjDZukwJZePtEUUgZBgw-222" target="TjDZukwJZePtEUUgZBgw-224">
          <mxGeometry width="50" height="50" relative="1" as="geometry">
            <mxPoint x="-3408.75" y="5635" as="sourcePoint" />
            <mxPoint x="-3358.75" y="5585" as="targetPoint" />
          </mxGeometry>
        </mxCell>
        <mxCell id="TjDZukwJZePtEUUgZBgw-272" value="" style="endArrow=classic;html=1;rounded=0;entryX=0;entryY=0.5;entryDx=0;entryDy=0;exitX=1;exitY=0.5;exitDx=0;exitDy=0;verticalAlign=middle;" edge="1" parent="1" source="TjDZukwJZePtEUUgZBgw-222" target="TjDZukwJZePtEUUgZBgw-226">
          <mxGeometry width="50" height="50" relative="1" as="geometry">
            <mxPoint x="-3408.75" y="5635" as="sourcePoint" />
            <mxPoint x="-3358.75" y="5585" as="targetPoint" />
          </mxGeometry>
        </mxCell>
        <mxCell id="TjDZukwJZePtEUUgZBgw-273" value="" style="endArrow=classic;html=1;rounded=0;entryX=0;entryY=0.5;entryDx=0;entryDy=0;exitX=1;exitY=0.5;exitDx=0;exitDy=0;verticalAlign=middle;" edge="1" parent="1" source="TjDZukwJZePtEUUgZBgw-222" target="TjDZukwJZePtEUUgZBgw-228">
          <mxGeometry width="50" height="50" relative="1" as="geometry">
            <mxPoint x="-3338.75" y="5665" as="sourcePoint" />
            <mxPoint x="-3288.75" y="5615" as="targetPoint" />
          </mxGeometry>
        </mxCell>
        <mxCell id="TjDZukwJZePtEUUgZBgw-274" value="" style="endArrow=classic;html=1;rounded=0;entryX=0;entryY=0.5;entryDx=0;entryDy=0;exitX=1;exitY=0.5;exitDx=0;exitDy=0;verticalAlign=middle;" edge="1" parent="1" source="TjDZukwJZePtEUUgZBgw-220" target="TjDZukwJZePtEUUgZBgw-222">
          <mxGeometry width="50" height="50" relative="1" as="geometry">
            <mxPoint x="-3168.75" y="5830" as="sourcePoint" />
            <mxPoint x="-3118.75" y="5780" as="targetPoint" />
          </mxGeometry>
        </mxCell>
        <mxCell id="TjDZukwJZePtEUUgZBgw-275" value="" style="endArrow=classic;html=1;rounded=0;entryX=0;entryY=0.5;entryDx=0;entryDy=0;exitX=1;exitY=0.5;exitDx=0;exitDy=0;" edge="1" parent="1" source="TjDZukwJZePtEUUgZBgw-230" target="TjDZukwJZePtEUUgZBgw-234">
          <mxGeometry width="50" height="50" relative="1" as="geometry">
            <mxPoint x="-3431.25" y="5770" as="sourcePoint" />
            <mxPoint x="-3381.25" y="5720" as="targetPoint" />
          </mxGeometry>
        </mxCell>
        <mxCell id="TjDZukwJZePtEUUgZBgw-276" value="" style="endArrow=classic;html=1;rounded=0;entryX=0;entryY=0.5;entryDx=0;entryDy=0;exitX=1;exitY=0.5;exitDx=0;exitDy=0;" edge="1" parent="1" source="TjDZukwJZePtEUUgZBgw-230" target="TjDZukwJZePtEUUgZBgw-232">
          <mxGeometry width="50" height="50" relative="1" as="geometry">
            <mxPoint x="-3206.25" y="5835" as="sourcePoint" />
            <mxPoint x="-3161.25" y="5763" as="targetPoint" />
          </mxGeometry>
        </mxCell>
        <mxCell id="TjDZukwJZePtEUUgZBgw-277" value="" style="endArrow=classic;html=1;rounded=0;entryX=0;entryY=0.5;entryDx=0;entryDy=0;exitX=1;exitY=0.5;exitDx=0;exitDy=0;" edge="1" parent="1" source="TjDZukwJZePtEUUgZBgw-220" target="TjDZukwJZePtEUUgZBgw-230">
          <mxGeometry width="50" height="50" relative="1" as="geometry">
            <mxPoint x="-3188.75" y="5860" as="sourcePoint" />
            <mxPoint x="-3138.75" y="5810" as="targetPoint" />
          </mxGeometry>
        </mxCell>
        <mxCell id="TjDZukwJZePtEUUgZBgw-278" value="" style="endArrow=classic;html=1;rounded=0;entryX=0;entryY=0.5;entryDx=0;entryDy=0;exitX=1;exitY=0.5;exitDx=0;exitDy=0;" edge="1" parent="1" source="TjDZukwJZePtEUUgZBgw-236" target="TjDZukwJZePtEUUgZBgw-242">
          <mxGeometry width="50" height="50" relative="1" as="geometry">
            <mxPoint x="-3253.75" y="5960" as="sourcePoint" />
            <mxPoint x="-3203.75" y="5910" as="targetPoint" />
          </mxGeometry>
        </mxCell>
        <mxCell id="TjDZukwJZePtEUUgZBgw-279" value="" style="endArrow=classic;html=1;rounded=0;entryX=0;entryY=0.5;entryDx=0;entryDy=0;exitX=1;exitY=0.5;exitDx=0;exitDy=0;" edge="1" parent="1" source="TjDZukwJZePtEUUgZBgw-236" target="TjDZukwJZePtEUUgZBgw-240">
          <mxGeometry width="50" height="50" relative="1" as="geometry">
            <mxPoint x="-3253.75" y="5960" as="sourcePoint" />
            <mxPoint x="-3203.75" y="5910" as="targetPoint" />
          </mxGeometry>
        </mxCell>
        <mxCell id="TjDZukwJZePtEUUgZBgw-280" value="" style="endArrow=classic;html=1;rounded=0;exitX=1;exitY=0.5;exitDx=0;exitDy=0;entryX=0;entryY=0.5;entryDx=0;entryDy=0;" edge="1" parent="1" source="TjDZukwJZePtEUUgZBgw-236" target="TjDZukwJZePtEUUgZBgw-244">
          <mxGeometry width="50" height="50" relative="1" as="geometry">
            <mxPoint x="-3113.75" y="6030" as="sourcePoint" />
            <mxPoint x="-3063.75" y="5980" as="targetPoint" />
          </mxGeometry>
        </mxCell>
        <mxCell id="TjDZukwJZePtEUUgZBgw-282" value="" style="endArrow=classic;html=1;rounded=0;exitX=1;exitY=0.5;exitDx=0;exitDy=0;entryX=0;entryY=0.5;entryDx=0;entryDy=0;" edge="1" parent="1" source="TjDZukwJZePtEUUgZBgw-236" target="TjDZukwJZePtEUUgZBgw-238">
          <mxGeometry width="50" height="50" relative="1" as="geometry">
            <mxPoint x="-3293.75" y="5920" as="sourcePoint" />
            <mxPoint x="-3243.75" y="5870" as="targetPoint" />
          </mxGeometry>
        </mxCell>
        <mxCell id="TjDZukwJZePtEUUgZBgw-283" value="" style="endArrow=classic;html=1;rounded=0;exitX=1;exitY=0.5;exitDx=0;exitDy=0;entryX=0;entryY=0.5;entryDx=0;entryDy=0;" edge="1" parent="1" source="TjDZukwJZePtEUUgZBgw-220" target="TjDZukwJZePtEUUgZBgw-236">
          <mxGeometry width="50" height="50" relative="1" as="geometry">
            <mxPoint x="-3358.75" y="5900" as="sourcePoint" />
            <mxPoint x="-3308.75" y="5850" as="targetPoint" />
          </mxGeometry>
        </mxCell>
        <mxCell id="TjDZukwJZePtEUUgZBgw-284" value="" style="endArrow=classic;html=1;rounded=0;entryX=0;entryY=0.5;entryDx=0;entryDy=0;exitX=1;exitY=0.5;exitDx=0;exitDy=0;" edge="1" parent="1" source="TjDZukwJZePtEUUgZBgw-190" target="TjDZukwJZePtEUUgZBgw-196">
          <mxGeometry width="50" height="50" relative="1" as="geometry">
            <mxPoint x="-3511.25" y="6130" as="sourcePoint" />
            <mxPoint x="-3461.25" y="6080" as="targetPoint" />
          </mxGeometry>
        </mxCell>
        <mxCell id="TjDZukwJZePtEUUgZBgw-285" value="" style="endArrow=classic;html=1;rounded=0;entryX=0;entryY=0.5;entryDx=0;entryDy=0;exitX=1;exitY=0.5;exitDx=0;exitDy=0;" edge="1" parent="1" source="TjDZukwJZePtEUUgZBgw-190" target="TjDZukwJZePtEUUgZBgw-192">
          <mxGeometry width="50" height="50" relative="1" as="geometry">
            <mxPoint x="-3431.25" y="6180" as="sourcePoint" />
            <mxPoint x="-3381.25" y="6130" as="targetPoint" />
          </mxGeometry>
        </mxCell>
        <mxCell id="TjDZukwJZePtEUUgZBgw-286" value="" style="endArrow=classic;html=1;rounded=0;exitX=1;exitY=0.5;exitDx=0;exitDy=0;entryX=0;entryY=0.5;entryDx=0;entryDy=0;" edge="1" parent="1" source="TjDZukwJZePtEUUgZBgw-190" target="TjDZukwJZePtEUUgZBgw-194">
          <mxGeometry width="50" height="50" relative="1" as="geometry">
            <mxPoint x="-3341.25" y="6250" as="sourcePoint" />
            <mxPoint x="-3291.25" y="6200" as="targetPoint" />
          </mxGeometry>
        </mxCell>
        <mxCell id="TjDZukwJZePtEUUgZBgw-287" value="" style="endArrow=classic;html=1;rounded=0;entryX=0;entryY=0.5;entryDx=0;entryDy=0;exitX=1;exitY=0.5;exitDx=0;exitDy=0;" edge="1" parent="1" source="TjDZukwJZePtEUUgZBgw-185" target="TjDZukwJZePtEUUgZBgw-190">
          <mxGeometry width="50" height="50" relative="1" as="geometry">
            <mxPoint x="-3770" y="6200" as="sourcePoint" />
            <mxPoint x="-3720" y="6150" as="targetPoint" />
          </mxGeometry>
        </mxCell>
        <mxCell id="TjDZukwJZePtEUUgZBgw-288" value="" style="endArrow=classic;html=1;rounded=0;entryX=0;entryY=0.5;entryDx=0;entryDy=0;exitX=1;exitY=0.5;exitDx=0;exitDy=0;" edge="1" parent="1" source="TjDZukwJZePtEUUgZBgw-185" target="TjDZukwJZePtEUUgZBgw-188">
          <mxGeometry width="50" height="50" relative="1" as="geometry">
            <mxPoint x="-3750" y="6080" as="sourcePoint" />
            <mxPoint x="-3700" y="6030" as="targetPoint" />
          </mxGeometry>
        </mxCell>
        <mxCell id="TjDZukwJZePtEUUgZBgw-289" value="5.2. Permanent-Magnet Stepper Motor" style="rounded=1;whiteSpace=wrap;html=1;fontSize=16;fillColor=#e1d5e7;strokeColor=#9673a6;verticalAlign=middle;" vertex="1" parent="1">
          <mxGeometry x="-2880" y="5800" width="180" height="80" as="geometry" />
        </mxCell>
        <mxCell id="TjDZukwJZePtEUUgZBgw-290" value="Stator: Two sets of windings =&gt; 2 phases, 4 poles." style="whiteSpace=wrap;html=1;fontSize=12;align=left;verticalAlign=middle;spacingLeft=4;fillColor=#d5e8d4;strokeColor=#82b366;" vertex="1" parent="1">
          <mxGeometry x="-2580" y="5890" width="280" height="30" as="geometry" />
        </mxCell>
        <mxCell id="TjDZukwJZePtEUUgZBgw-292" value="Rotor: Two-pole permanent magnet (or 24-pole)." style="whiteSpace=wrap;html=1;fontSize=12;align=left;verticalAlign=middle;spacingLeft=4;fillColor=#d5e8d4;strokeColor=#82b366;" vertex="1" parent="1">
          <mxGeometry x="-2580" y="5940" width="270" height="30" as="geometry" />
        </mxCell>
        <mxCell id="TjDZukwJZePtEUUgZBgw-294" value="Phase States:&amp;nbsp;&lt;div&gt;-1: current in specified direction&amp;nbsp;&lt;/div&gt;&lt;div&gt;-1: current in opposite direction&amp;nbsp;&lt;/div&gt;&lt;div&gt;- 0: no current&lt;/div&gt;" style="whiteSpace=wrap;html=1;fontSize=12;align=left;verticalAlign=middle;spacingLeft=4;fillColor=#d5e8d4;strokeColor=#82b366;" vertex="1" parent="1">
          <mxGeometry x="-2580" y="5807.5" width="180" height="65" as="geometry" />
        </mxCell>
        <mxCell id="TjDZukwJZePtEUUgZBgw-296" value="Full Step - One Phase Mode (Wave Drive):" style="whiteSpace=wrap;html=1;fontSize=12;fontStyle=1;align=left;verticalAlign=middle;spacingLeft=4;fillColor=#d5e8d4;strokeColor=#82b366;" vertex="1" parent="1">
          <mxGeometry x="-2580" y="5680" width="250" height="30" as="geometry" />
        </mxCell>
        <mxCell id="TjDZukwJZePtEUUgZBgw-298" value="- Only one winding energized&amp;nbsp;&lt;div&gt;- Generated torque is small&amp;nbsp;&lt;/div&gt;&lt;div&gt;- Step angle: 90° (4 steps/rev)&amp;nbsp;&lt;/div&gt;&lt;div&gt;- Sequence table (Φ1, Φ2)&lt;/div&gt;" style="whiteSpace=wrap;html=1;fontSize=11;align=left;verticalAlign=middle;spacingLeft=4;fillColor=#f5f5f5;strokeColor=#666666;" vertex="1" parent="1">
          <mxGeometry x="-2300" y="5660" width="160" height="70" as="geometry" />
        </mxCell>
        <mxCell id="TjDZukwJZePtEUUgZBgw-299" style="edgeStyle=orthogonalEdgeStyle;rounded=0;orthogonalLoop=1;jettySize=auto;html=1;verticalAlign=middle;" edge="1" parent="1" source="TjDZukwJZePtEUUgZBgw-296" target="TjDZukwJZePtEUUgZBgw-298">
          <mxGeometry relative="1" as="geometry" />
        </mxCell>
        <mxCell id="TjDZukwJZePtEUUgZBgw-300" value="Full Step - Two Phase Mode:" style="whiteSpace=wrap;html=1;fontSize=12;fontStyle=1;align=left;verticalAlign=middle;spacingLeft=4;fillColor=#d5e8d4;strokeColor=#82b366;" vertex="1" parent="1">
          <mxGeometry x="-2580" y="5760" width="170" height="30" as="geometry" />
        </mxCell>
        <mxCell id="TjDZukwJZePtEUUgZBgw-302" value="- Two windings energized&amp;nbsp;&lt;div&gt;- More torque than wave drive&amp;nbsp;&lt;/div&gt;&lt;div&gt;- Step angle: 90°&amp;nbsp;&lt;/div&gt;&lt;div&gt;- Sequence table (Φ1, Φ2)&lt;/div&gt;" style="whiteSpace=wrap;html=1;fontSize=11;align=left;verticalAlign=middle;spacingLeft=4;fillColor=#f5f5f5;strokeColor=#666666;" vertex="1" parent="1">
          <mxGeometry x="-2380" y="5747.5" width="160" height="55" as="geometry" />
        </mxCell>
        <mxCell id="TjDZukwJZePtEUUgZBgw-303" style="edgeStyle=orthogonalEdgeStyle;rounded=0;orthogonalLoop=1;jettySize=auto;html=1;verticalAlign=middle;" edge="1" parent="1" source="TjDZukwJZePtEUUgZBgw-300" target="TjDZukwJZePtEUUgZBgw-302">
          <mxGeometry relative="1" as="geometry" />
        </mxCell>
        <mxCell id="TjDZukwJZePtEUUgZBgw-304" value="Half Step Drive Mode:" style="whiteSpace=wrap;html=1;fontSize=12;fontStyle=1;align=left;verticalAlign=middle;spacingLeft=4;fillColor=#d5e8d4;strokeColor=#82b366;" vertex="1" parent="1">
          <mxGeometry x="-2580" y="5590" width="210" height="30" as="geometry" />
        </mxCell>
        <mxCell id="TjDZukwJZePtEUUgZBgw-306" value="- Combination of wave &amp;amp; full step&amp;nbsp;&lt;div&gt;- Step angle: 45° (8 steps/rev)&amp;nbsp;&lt;/div&gt;&lt;div&gt;- Sequence table (Φ1, Φ2) for CW&amp;nbsp;&lt;/div&gt;&lt;div&gt;- Q: Waveforms for CW/CCW&lt;/div&gt;" style="whiteSpace=wrap;html=1;fontSize=11;align=left;verticalAlign=middle;spacingLeft=4;fillColor=#f5f5f5;strokeColor=#666666;" vertex="1" parent="1">
          <mxGeometry x="-2340" y="5570" width="180" height="70" as="geometry" />
        </mxCell>
        <mxCell id="TjDZukwJZePtEUUgZBgw-307" style="edgeStyle=orthogonalEdgeStyle;rounded=0;orthogonalLoop=1;jettySize=auto;html=1;verticalAlign=middle;" edge="1" parent="1" source="TjDZukwJZePtEUUgZBgw-304" target="TjDZukwJZePtEUUgZBgw-306">
          <mxGeometry relative="1" as="geometry" />
        </mxCell>
        <mxCell id="TjDZukwJZePtEUUgZBgw-308" value="" style="endArrow=classic;html=1;rounded=0;entryX=0;entryY=0.5;entryDx=0;entryDy=0;exitX=1;exitY=0.5;exitDx=0;exitDy=0;" edge="1" parent="1" source="TjDZukwJZePtEUUgZBgw-289" target="TjDZukwJZePtEUUgZBgw-304">
          <mxGeometry width="50" height="50" relative="1" as="geometry">
            <mxPoint x="-2280" y="5710" as="sourcePoint" />
            <mxPoint x="-2220" y="5410" as="targetPoint" />
          </mxGeometry>
        </mxCell>
        <mxCell id="TjDZukwJZePtEUUgZBgw-309" value="" style="endArrow=classic;html=1;rounded=0;exitX=1;exitY=0.5;exitDx=0;exitDy=0;entryX=0;entryY=0.5;entryDx=0;entryDy=0;" edge="1" parent="1" source="TjDZukwJZePtEUUgZBgw-289" target="TjDZukwJZePtEUUgZBgw-296">
          <mxGeometry width="50" height="50" relative="1" as="geometry">
            <mxPoint x="-2190" y="5880" as="sourcePoint" />
            <mxPoint x="-2140" y="5830" as="targetPoint" />
          </mxGeometry>
        </mxCell>
        <mxCell id="TjDZukwJZePtEUUgZBgw-310" value="" style="endArrow=classic;html=1;rounded=0;entryX=0;entryY=0.5;entryDx=0;entryDy=0;exitX=1;exitY=0.5;exitDx=0;exitDy=0;" edge="1" parent="1" source="TjDZukwJZePtEUUgZBgw-289" target="TjDZukwJZePtEUUgZBgw-300">
          <mxGeometry width="50" height="50" relative="1" as="geometry">
            <mxPoint x="-2640" y="5970" as="sourcePoint" />
            <mxPoint x="-2590" y="5920" as="targetPoint" />
          </mxGeometry>
        </mxCell>
        <mxCell id="TjDZukwJZePtEUUgZBgw-311" value="" style="endArrow=classic;html=1;rounded=0;exitX=1;exitY=0.5;exitDx=0;exitDy=0;entryX=0;entryY=0.5;entryDx=0;entryDy=0;" edge="1" parent="1" source="TjDZukwJZePtEUUgZBgw-289" target="TjDZukwJZePtEUUgZBgw-294">
          <mxGeometry width="50" height="50" relative="1" as="geometry">
            <mxPoint x="-2340" y="6130" as="sourcePoint" />
            <mxPoint x="-2290" y="6080" as="targetPoint" />
          </mxGeometry>
        </mxCell>
        <mxCell id="TjDZukwJZePtEUUgZBgw-312" value="" style="endArrow=classic;html=1;rounded=0;exitX=1;exitY=0.5;exitDx=0;exitDy=0;entryX=0;entryY=0.5;entryDx=0;entryDy=0;" edge="1" parent="1" source="TjDZukwJZePtEUUgZBgw-289" target="TjDZukwJZePtEUUgZBgw-290">
          <mxGeometry width="50" height="50" relative="1" as="geometry">
            <mxPoint x="-2190" y="5920" as="sourcePoint" />
            <mxPoint x="-2140" y="5870" as="targetPoint" />
          </mxGeometry>
        </mxCell>
        <mxCell id="TjDZukwJZePtEUUgZBgw-315" value="" style="endArrow=classic;html=1;rounded=0;entryX=0;entryY=0.5;entryDx=0;entryDy=0;exitX=1;exitY=0.5;exitDx=0;exitDy=0;" edge="1" parent="1" source="TjDZukwJZePtEUUgZBgw-289" target="TjDZukwJZePtEUUgZBgw-292">
          <mxGeometry width="50" height="50" relative="1" as="geometry">
            <mxPoint x="-2640" y="6090" as="sourcePoint" />
            <mxPoint x="-2590" y="6040" as="targetPoint" />
          </mxGeometry>
        </mxCell>
        <mxCell id="TjDZukwJZePtEUUgZBgw-318" value="5.3. Variable-Reluctance Stepper Motor" style="rounded=1;whiteSpace=wrap;html=1;fontSize=16;fillColor=#e1d5e7;strokeColor=#9673a6;verticalAlign=middle;" vertex="1" parent="1">
          <mxGeometry x="-2080" y="5832.5" width="290" height="30" as="geometry" />
        </mxCell>
        <mxCell id="TjDZukwJZePtEUUgZBgw-323" value="Working Principle: Flux lines flow low reluctance path. Stator &amp; rotor align to minimize reluctance." style="whiteSpace=wrap;html=1;fontSize=12;align=left;verticalAlign=middle;spacingLeft=4;fillColor=#d5e8d4;strokeColor=#82b366;" vertex="1" parent="1">
          <mxGeometry x="-1760" y="5802.5" width="265" height="40" as="geometry" />
        </mxCell>
        <mxCell id="TjDZukwJZePtEUUgZBgw-351" value="Microstepping Drive Mode (VR)" style="whiteSpace=wrap;html=1;fontSize=12;fontStyle=1;align=left;verticalAlign=middle;spacingLeft=4;fillColor=#d5e8d4;strokeColor=#82b366;" vertex="1" parent="1">
          <mxGeometry x="-1760" y="5882.5" width="190" height="30" as="geometry" />
        </mxCell>
        <mxCell id="TjDZukwJZePtEUUgZBgw-353" value="- Reduce step size (e.g. 1/125 full step)&amp;nbsp;&lt;div&gt;- Smoother motion&amp;nbsp;&lt;/div&gt;&lt;div&gt;- Reduce positioning oscillations&lt;/div&gt;" style="whiteSpace=wrap;html=1;fontSize=11;align=left;verticalAlign=middle;spacingLeft=4;fillColor=#f5f5f5;strokeColor=#666666;" vertex="1" parent="1">
          <mxGeometry x="-1540" y="5902.5" width="210" height="50" as="geometry" />
        </mxCell>
        <mxCell id="TjDZukwJZePtEUUgZBgw-355" value="How: Vary current in phases (sine/cosine) to position resultant magnetic field precisely." style="whiteSpace=wrap;html=1;fontSize=11;align=left;verticalAlign=middle;spacingLeft=4;fillColor=#f5f5f5;strokeColor=#666666;" vertex="1" parent="1">
          <mxGeometry x="-1540" y="5852.5" width="230" height="40" as="geometry" />
        </mxCell>
        <mxCell id="TjDZukwJZePtEUUgZBgw-401" value="" style="endArrow=classic;html=1;rounded=0;exitX=1;exitY=0.5;exitDx=0;exitDy=0;entryX=0;entryY=0.5;entryDx=0;entryDy=0;" edge="1" parent="1" source="TjDZukwJZePtEUUgZBgw-351" target="TjDZukwJZePtEUUgZBgw-355">
          <mxGeometry width="50" height="50" relative="1" as="geometry">
            <mxPoint x="-1470" y="5952.5" as="sourcePoint" />
            <mxPoint x="-1420" y="5902.5" as="targetPoint" />
          </mxGeometry>
        </mxCell>
        <mxCell id="TjDZukwJZePtEUUgZBgw-402" value="" style="endArrow=classic;html=1;rounded=0;exitX=1;exitY=0.5;exitDx=0;exitDy=0;entryX=0;entryY=0.5;entryDx=0;entryDy=0;" edge="1" parent="1" source="TjDZukwJZePtEUUgZBgw-351" target="TjDZukwJZePtEUUgZBgw-353">
          <mxGeometry width="50" height="50" relative="1" as="geometry">
            <mxPoint x="-1470" y="5952.5" as="sourcePoint" />
            <mxPoint x="-1420" y="5902.5" as="targetPoint" />
          </mxGeometry>
        </mxCell>
        <mxCell id="TjDZukwJZePtEUUgZBgw-403" value="" style="endArrow=classic;html=1;rounded=0;exitX=1;exitY=0.5;exitDx=0;exitDy=0;entryX=0;entryY=0.5;entryDx=0;entryDy=0;" edge="1" parent="1" source="TjDZukwJZePtEUUgZBgw-318" target="TjDZukwJZePtEUUgZBgw-351">
          <mxGeometry width="50" height="50" relative="1" as="geometry">
            <mxPoint x="-1550" y="5942.5" as="sourcePoint" />
            <mxPoint x="-1500" y="5892.5" as="targetPoint" />
          </mxGeometry>
        </mxCell>
        <mxCell id="TjDZukwJZePtEUUgZBgw-404" value="" style="endArrow=classic;html=1;rounded=0;exitX=1;exitY=0.5;exitDx=0;exitDy=0;entryX=0;entryY=0.5;entryDx=0;entryDy=0;" edge="1" parent="1" source="TjDZukwJZePtEUUgZBgw-318" target="TjDZukwJZePtEUUgZBgw-323">
          <mxGeometry width="50" height="50" relative="1" as="geometry">
            <mxPoint x="-1650" y="5922.5" as="sourcePoint" />
            <mxPoint x="-1600" y="5872.5" as="targetPoint" />
          </mxGeometry>
        </mxCell>
      </root>
    </mxGraphModel>
  </diagram>
</mxfile>
